<svg width="90" height="40" viewBox="0 0 90 40" fill="none" xmlns="http://www.w3.org/2000/svg">
<g filter="url(#filter0_i_1364_24)">
<g clip-path="url(#clip0_1364_24)">
<rect width="90" height="40" rx="20" fill="black"/>
<path d="M5.00049 19.5C2.00034 26.5 -3.99953 18.5 1.00071 29V41H96.5007V16C94.0007 19.3333 88.2007 25.9 85.0007 25.5C81.0007 25 75.5007 19 70.0007 20C65.6007 20.8 62.5007 29 57.0007 33C51.5007 37 42.0005 19 35.5005 20C29.0005 21 29.8569 25 23.0005 25C14.5005 25 8.00064 12.5 5.00049 19.5Z" fill="url(#paint0_linear_1364_24)" fill-opacity="0.8"/>
<circle cx="20" cy="20" r="17" fill="#F9F4E1"/>
<path d="M11.9204 37.0592C4.84083 30.5592 5.5 32.5592 2 43.5592L11.9204 47.0592H107.42V22.0592C104.92 25.3925 99.1204 31.9592 95.9204 31.5592C91.9204 31.0592 91.5 19.0592 86 20.0592C81.6 20.8592 77.5 30.5592 72 34.5592C66.5 38.5592 57.5 27.5592 50 26.5592C42.5 25.5592 40.3994 37.5205 34 35.0592C27.5 32.5592 19 43.5592 11.9204 37.0592Z" fill="url(#paint1_linear_1364_24)" fill-opacity="0.94"/>
<g filter="url(#filter1_f_1364_24)">
<path d="M63 15.1757C63.1314 16.5972 63.6649 17.9519 64.5381 19.0813C65.4113 20.2107 66.588 21.068 67.9307 21.553C69.2734 22.038 70.7264 22.1305 72.1198 21.8198C73.5131 21.5092 74.7892 20.8081 75.7986 19.7986C76.8081 18.7892 77.5092 17.5131 77.8198 16.1198C78.1305 14.7264 78.038 13.2734 77.553 11.9307C77.068 10.588 76.2107 9.41125 75.0813 8.53806C73.9519 7.66486 72.5972 7.13137 71.1757 7C72.0079 8.12594 72.4084 9.51321 72.3043 10.9095C72.2002 12.3057 71.5984 13.6183 70.6083 14.6083C69.6183 15.5984 68.3057 16.2002 66.9095 16.3043C65.5132 16.4084 64.1259 16.0079 63 15.1757Z" fill="#F9F4E1"/>
</g>
<path d="M63 15.1757C63.1314 16.5972 63.6649 17.9519 64.5381 19.0813C65.4113 20.2107 66.588 21.068 67.9307 21.553C69.2734 22.038 70.7264 22.1305 72.1198 21.8198C73.5131 21.5092 74.7892 20.8081 75.7986 19.7986C76.8081 18.7892 77.5092 17.5131 77.8198 16.1198C78.1305 14.7264 78.038 13.2734 77.553 11.9307C77.068 10.588 76.2107 9.41125 75.0813 8.53806C73.9519 7.66486 72.5972 7.13137 71.1757 7C72.0079 8.12594 72.4084 9.51321 72.3043 10.9095C72.2002 12.3057 71.5984 13.6183 70.6083 14.6083C69.6183 15.5984 68.3057 16.2002 66.9095 16.3043C65.5132 16.4084 64.1259 16.0079 63 15.1757Z" fill="#F9F4E1"/>
</g>
</g>
<defs>
<filter id="filter0_i_1364_24" x="0" y="0" width="90" height="44" filterUnits="userSpaceOnUse" color-interpolation-filters="sRGB">
<feFlood flood-opacity="0" result="BackgroundImageFix"/>
<feBlend mode="normal" in="SourceGraphic" in2="BackgroundImageFix" result="shape"/>
<feColorMatrix in="SourceAlpha" type="matrix" values="0 0 0 0 0 0 0 0 0 0 0 0 0 0 0 0 0 0 127 0" result="hardAlpha"/>
<feOffset dy="4"/>
<feGaussianBlur stdDeviation="2"/>
<feComposite in2="hardAlpha" operator="arithmetic" k2="-1" k3="1"/>
<feColorMatrix type="matrix" values="0 0 0 0 0 0 0 0 0 0 0 0 0 0 0 0 0 0 0.25 0"/>
<feBlend mode="normal" in2="shape" result="effect1_innerShadow_1364_24"/>
</filter>
<filter id="filter1_f_1364_24" x="59" y="3" width="23" height="23" filterUnits="userSpaceOnUse" color-interpolation-filters="sRGB">
<feFlood flood-opacity="0" result="BackgroundImageFix"/>
<feBlend mode="normal" in="SourceGraphic" in2="BackgroundImageFix" result="shape"/>
<feGaussianBlur stdDeviation="2" result="effect1_foregroundBlur_1364_24"/>
</filter>
<linearGradient id="paint0_linear_1364_24" x1="48.7505" y1="16" x2="48.7505" y2="41" gradientUnits="userSpaceOnUse">
<stop stop-color="#070F41"/>
<stop offset="1" stop-color="#8AABD7"/>
</linearGradient>
<linearGradient id="paint1_linear_1364_24" x1="59.6704" y1="22.0592" x2="59.6704" y2="47.0592" gradientUnits="userSpaceOnUse">
<stop stop-color="#130948"/>
<stop offset="1" stop-color="#9ED5E4"/>
</linearGradient>
<clipPath id="clip0_1364_24">
<rect width="90" height="40" rx="20" fill="white"/>
</clipPath>
</defs>
</svg>
