<svg width="164" height="164" viewBox="0 0 164 164" fill="none" xmlns="http://www.w3.org/2000/svg">
<g clip-path="url(#clip0_702_540)">
<path d="M82.5433 17.2318C82.5203 17.7094 82.1636 17.813 81.8818 17.9626C79.9719 18.9924 77.9125 19.6023 75.8185 20.1086C72.6661 20.8681 69.4562 21.2018 66.229 21.15C62.6394 21.0983 59.0958 20.5862 55.5868 19.8267C53.7172 19.424 51.8533 19.0155 50.0355 18.4286C49.7652 18.3423 49.443 18.2215 49.2244 18.4516C48.9886 18.699 49.0979 19.0385 49.2072 19.3319C49.9953 21.5355 51.6463 22.9567 53.6079 24.0441C56.4899 25.6378 59.5963 26.3052 62.8983 26.3052C68.8407 26.3052 74.4207 24.9129 79.7706 22.3755C82.3017 21.1731 84.6948 19.7289 87.1281 18.3596C88.3476 17.6691 88.3994 17.4735 87.3812 16.5932C85.1722 14.6945 83.1646 12.5599 80.8118 10.8224C78.4187 9.05601 75.715 8.65326 72.8387 9.18835C72.1081 9.32643 71.5386 9.76946 70.9691 10.2125C70.8081 10.3391 70.6182 10.5635 70.4054 10.4196C70.1753 10.27 70.3536 10.0226 70.4054 9.82699C71.3661 6.40937 73.9605 4.92495 77.5961 5.67866C79.3334 6.04114 80.7082 6.96171 81.853 8.28504C82.3074 8.80861 82.7734 9.32068 83.2796 9.79247C83.7053 10.1895 83.9699 10.0859 83.9929 9.49904C84.0275 8.69929 84.1828 7.93982 84.4531 7.19186C85.27 4.93645 87.3524 3.54984 89.734 3.29093C92.4492 2.9975 95.0551 3.63039 97.7128 3.83752C99.2142 3.95259 100.721 3.89505 102.229 3.87779C102.735 3.87204 103.178 3.57861 103.655 3.41751C103.926 3.32545 104.271 3.21038 104.461 3.45778C104.633 3.68793 104.386 3.95834 104.242 4.15972C102.741 6.23101 100.704 7.14583 98.1615 6.92719C97.615 6.88116 97.0743 6.79486 96.5278 6.71431C96.0791 6.64527 95.8145 6.78911 95.8778 7.28391C96.0216 8.48641 95.2162 9.15958 94.4741 9.87878C94.3533 9.9996 94.2038 10.1032 94.0254 10.0399C93.8011 9.95933 93.8011 9.74644 93.8011 9.55658C93.8011 8.87765 93.6918 8.22175 93.4617 7.58885C93.0072 6.32307 92.0581 5.59236 90.7235 5.55209C89.7225 5.52332 88.7158 5.46578 87.7264 5.68442C86.2077 6.01813 85.27 7.13432 85.1032 8.68779C84.7638 11.904 86.0581 14.332 88.5892 16.2307C89.245 16.7255 89.7052 16.8176 90.4588 16.3343C93.4387 14.4414 96.4185 12.5312 99.5536 10.8972C105.416 7.83626 111.456 5.23564 117.996 3.97561C120.965 3.40025 123.95 3.1586 126.965 3.19312C129.548 3.22189 132.073 3.6419 134.477 4.5337C135.95 5.07454 137.25 6.02388 138.355 7.1861C138.504 7.34145 138.608 7.67516 138.901 7.51981C139.149 7.39323 139.08 7.09405 139.08 6.8639C139.08 6.02963 139.062 5.20687 139.453 4.41288C140.23 2.83064 141.743 2.58324 143.227 3.25641C143.618 3.43477 143.595 3.67067 143.308 3.90081C142.209 4.7696 142.054 5.99511 142.042 7.2609C142.031 10.0571 142.077 12.8534 142.042 15.6496C141.99 19.4182 140.518 22.4503 137.25 24.4871C137.009 24.6367 136.853 24.8266 136.802 25.097C136.767 25.2869 136.704 25.4825 136.744 25.6608C136.859 26.2362 136.428 27.0014 137.078 27.3697C137.866 27.8184 139.08 27.4214 139.666 26.6044C140.523 25.4019 141.547 24.3663 142.773 23.5608C144.481 22.4331 146.431 22.0591 148.433 22.0073C150.51 21.9498 152.592 21.9153 154.669 22.0994C155.889 22.2029 157.108 22.0418 158.316 21.9383C159.024 21.875 159.737 21.6966 160.237 21.0983C160.45 20.8451 160.629 20.9141 160.819 21.1443C161.446 21.9153 161.405 22.9624 160.698 23.6816C159.777 24.6194 158.638 25.028 157.344 25.0682C157.114 25.074 156.809 24.9877 156.688 25.2351C156.556 25.4997 156.838 25.6666 156.982 25.8335C159.743 28.9001 160.525 32.6514 160.859 36.6099C161.106 39.5788 160.732 42.5016 160.18 45.3668C159.587 48.4508 158.782 51.5059 157.66 54.469C155.601 59.8889 153.254 65.1534 149.998 69.9807C149.037 71.4075 148.33 72.9955 147.271 74.3591C147.053 74.6468 147.208 74.8424 147.398 75.0438C148.353 76.0162 149.325 76.977 150.401 77.8113C152.063 79.0943 154.007 79.1691 155.94 78.8124C157.465 78.5305 158.454 77.0978 158.575 75.3603C158.61 74.8367 158.615 74.3074 158.564 73.7838C158.345 71.7067 157.315 70.7459 155.037 70.4179C154.721 70.3719 154.284 70.4697 154.18 70.067C154.088 69.716 154.422 69.4628 154.652 69.2327C155.262 68.6056 155.992 68.2316 156.895 68.3179C157.459 68.3697 157.632 68.1683 157.465 67.6102C156.999 66.051 157.097 64.509 157.609 62.9613C158.069 61.5574 159.179 60.7116 160.157 59.745C160.295 59.607 160.496 59.5207 160.68 59.6587C160.865 59.8026 160.796 60.004 160.726 60.1881C159.582 63.2029 159.72 66.2638 160.307 69.365C160.755 71.7355 160.761 74.1002 160.163 76.4649C159.835 77.7595 159.047 78.611 157.936 79.2094C156.878 79.779 155.745 80.153 154.542 80.2853C154.364 80.3026 154.117 80.245 154.059 80.4924C154.007 80.7053 154.192 80.8377 154.33 80.97C154.767 81.3727 155.193 81.7985 155.664 82.1667C157.471 83.5706 158.115 85.5038 158.241 87.6959C158.333 89.2436 158.092 90.6935 157.143 91.9708C156.355 93.0353 155.244 93.5358 154.007 93.835C153.841 93.8753 153.668 93.9098 153.559 93.7372C153.461 93.5876 153.57 93.4725 153.657 93.3517C155.762 90.4692 155.423 87.483 153.938 84.5084C152.886 82.4084 151.143 80.8204 149.601 79.0943C148.819 78.2198 148.163 77.2417 147.294 76.4534C146.656 75.8781 146.477 75.8896 146.029 76.6203C143.745 80.3256 141.542 84.0712 140.069 88.1965C138.913 91.4242 138.222 94.7383 137.837 98.1617C137.434 101.781 137.682 105.262 139.08 108.633C139.845 110.48 140.84 112.183 142.278 113.599C143.17 114.473 144.337 114.772 145.476 115.123C145.908 115.256 145.799 114.939 145.764 114.703C145.591 113.495 145.177 112.339 144.907 111.153C143.756 106.113 142.79 101.05 142.98 95.843C143.147 91.3322 144.027 86.9882 145.919 82.8687C146.075 82.535 146.195 82.1667 146.564 81.9021C146.736 82.207 146.598 82.4314 146.495 82.6615C145.074 85.8145 144.498 89.1458 144.142 92.575C143.774 96.1134 144.038 99.5943 144.51 103.064C145.039 107.005 146.132 110.82 147.651 114.502C147.893 115.094 148.261 115.238 148.853 115.267C152.845 115.48 156.366 112.339 156.769 107.816C156.959 105.676 156.602 103.743 155.417 101.948C154.87 101.119 154.456 100.244 154.583 99.1973C154.652 98.5875 154.934 98.2422 155.543 98.1272C156.47 97.9546 157.66 98.5299 158.172 99.3584C158.989 100.676 159.329 102.143 159.478 103.645C159.933 108.242 158.512 112.131 154.899 115.089C153.352 116.354 151.425 116.746 149.497 117.028C148.767 117.137 148.652 117.218 148.922 117.931C149.848 120.359 151.194 122.499 153.294 124.11C154.698 125.186 156.309 124.991 157.908 124.933C159.34 124.881 160.364 124.139 161.204 123.046C161.704 122.39 161.865 122.407 162.383 123.075C164.034 125.215 162.964 128.449 160.353 129.208C159.737 129.386 159.116 129.553 158.431 129.749C158.684 130.186 159.029 130.474 159.375 130.738C161.21 132.177 162.544 134.041 163.862 135.922C163.988 136.101 164.19 136.469 163.758 136.417C162.567 136.285 161.371 136.613 160.186 136.348C159.386 136.17 158.627 135.905 157.942 135.433C157.787 135.33 157.62 135.151 157.436 135.318C157.246 135.491 157.436 135.675 157.517 135.83C158.587 137.861 159.674 139.881 160.732 141.912C161.969 144.3 162.711 146.831 162.809 149.524C162.895 151.889 163.056 154.265 162.418 156.584C161.63 159.46 160.013 161.819 157.712 163.706C157.54 163.85 157.327 164.121 157.102 163.954C156.861 163.775 157.097 163.511 157.183 163.309C158.771 159.719 159.34 155.939 159.168 152.05C159.029 149 158.293 146.06 157.424 143.143C156.147 138.863 154.347 134.8 152.264 130.871C150.28 127.125 148.669 123.219 147.15 119.272C146.92 118.673 146.753 118.04 146.61 117.419C146.523 117.051 146.334 116.838 145.983 116.723C142.186 115.491 139.85 112.81 138.291 109.232C136.802 105.814 136.606 102.27 136.779 98.6335C136.882 96.4759 137.227 94.3528 137.814 92.2873C139.126 87.6672 141.012 83.2944 143.647 79.2554C144.349 78.1795 144.913 77.0115 145.563 75.8953C145.896 75.32 145.919 74.8022 145.494 74.2441C144.763 73.2947 144.274 72.1958 143.682 71.1601C143.239 70.3892 142.991 70.3719 142.416 71.0451C140.897 72.8459 139.758 74.9 138.642 76.9597C136.537 80.8549 134.949 84.9515 134.288 89.3415C133.868 92.1089 133.73 94.9109 134.805 97.6093C134.857 97.7417 134.955 97.897 134.8 97.9891C134.662 98.0754 134.541 97.92 134.414 97.8683C131.026 96.6197 130.048 93.8408 129.835 90.6015C129.691 88.4496 130.175 86.4589 131.291 84.5775C132.763 82.0919 134.322 79.6524 135.565 77.0345C135.714 76.7181 135.927 76.4247 135.927 75.8838C135.294 76.4649 134.788 77.0173 134.196 77.4661C133.039 78.3349 131.791 78.9332 130.307 78.8757C130.094 78.8642 129.875 78.8469 129.674 78.7894C129.254 78.6686 128.788 78.4845 128.679 78.0529C128.57 77.5984 129.087 77.4661 129.381 77.2589C132.66 74.969 135.789 72.5007 138.688 69.7505C139.344 69.1291 140.052 68.548 140.759 67.9784C141.225 67.5987 141.317 67.1959 141.03 66.6608C139.465 63.7898 138.591 60.6484 137.509 57.5874C137.371 57.2077 137.181 57.1502 136.819 57.1789C134.782 57.3516 132.953 56.7704 131.279 55.6197C130.41 55.0214 129.979 54.1756 129.829 53.1687C129.732 52.4955 129.973 51.995 130.652 51.7648C131.302 51.5404 131.774 51.7936 132.096 52.3517C132.418 52.9098 132.729 53.4794 133.016 54.0548C133.574 55.1709 135.26 55.9649 136.468 55.683C136.917 55.5795 136.876 55.2688 136.79 54.9581C136.203 52.858 135.904 50.7062 135.622 48.5543C135.214 45.4129 135.231 42.2714 135.605 39.1242C135.87 36.8918 136.261 34.6882 136.83 32.5134C137.129 31.3741 137.538 30.2867 138.027 29.2166C138.171 28.9001 138.516 28.4686 138.05 28.2039C137.636 27.9738 137.141 28.1349 136.825 28.5089C136.514 28.8713 136.284 29.2914 136.008 29.6826C135.432 30.5054 134.713 31.075 133.643 31.0577C132.988 31.0462 132.85 30.8793 132.959 30.2407C133.195 28.8426 134.132 28.1234 135.363 27.6516C135.956 27.4214 136.238 26.6274 135.944 26.0866C135.732 25.6954 135.45 25.9428 135.208 26.0463C133.649 26.7368 132.033 27.2201 130.37 27.5883C125.952 28.5549 121.482 28.8483 116.984 28.6527C114.666 28.5549 112.388 28.0889 110.121 27.6286C110.098 27.6286 110.075 27.6171 110.052 27.6113C108.499 27.2718 108.223 27.5423 108.579 29.1245C108.764 29.953 109.189 30.6204 110 30.9887C110.61 31.2648 111.226 31.5295 111.801 31.8747C112.577 32.3407 112.779 32.9564 112.491 33.6008C112.278 34.0726 111.95 34.2912 111.421 34.2567C109.5 34.1186 108.453 32.8356 107.699 31.2878C107.118 30.0969 106.934 28.7735 107.02 27.4445C107.061 26.8058 106.75 26.5469 106.192 26.4031C103.339 25.6666 100.624 24.5562 97.9659 23.2904C96.8845 22.7725 96.8212 22.7495 95.9986 23.6068C92.6045 27.151 89.5097 30.9426 86.7542 35.0104C86.3515 35.603 86.1962 35.6088 85.805 34.9989C85.2988 34.2107 85.178 33.3764 85.4253 32.4616C85.736 31.3224 86.3112 30.3558 87.1108 29.5042C87.4042 29.1935 87.7034 28.8771 87.9852 28.5549C88.037 28.4916 88.0773 28.365 88.0543 28.3017C87.9967 28.1521 87.8529 28.2097 87.7551 28.2557C87.1741 28.5319 86.5528 28.7505 86.0236 29.1072C84.1598 30.3673 82.2269 31.518 80.2193 32.5249C77.6191 33.8309 74.9384 34.8781 71.901 34.2567C69.5655 33.7791 67.6269 32.7665 66.4936 30.5629C66.4188 30.4133 66.3441 30.258 66.3038 30.1026C66.183 29.6596 66.2405 29.464 66.8158 29.5272C69.9107 29.8494 73.04 30.0048 76.1004 29.4582C79.6152 28.8311 82.9287 27.4962 86.1559 25.9543C88.3189 24.9186 90.3035 23.5838 92.3054 22.2777C92.4262 22.1972 92.5413 22.1166 92.6563 22.0303C93.7953 21.1731 93.7723 20.9602 92.5528 20.2352C91.7129 19.7347 90.8788 19.2168 90.0734 18.6587C89.4866 18.256 88.9344 18.2617 88.3304 18.5782C86.0926 19.7634 83.8146 20.8739 81.6171 22.1339C76.762 24.9244 71.5904 26.754 66.0219 27.2949C61.4774 27.7321 57.0134 27.1798 52.9751 24.8784C50.3749 23.3939 48.4651 21.1961 47.5159 18.2905C47.3088 17.6519 46.9867 17.3527 46.3194 17.1801C41.8669 15.9948 37.6848 14.1537 33.6119 11.9903C28.6015 9.32068 23.3724 7.14583 17.8384 5.81675C13.7598 4.83864 9.61223 4.66603 5.46462 5.43701C4.07825 5.69593 2.73215 6.12744 1.46659 6.7776C1.27675 6.87541 1.08692 6.98473 0.879826 7.04802C0.626713 7.12857 0.304569 7.42775 0.103229 7.14007C-0.121121 6.81787 0.310322 6.66828 0.488652 6.47841C1.28251 5.62113 1.99007 4.70056 2.89323 3.92958C5.27479 1.85829 8.07629 1.06429 11.2172 0.851412C16.5211 0.488937 21.1059 2.34159 25.5008 4.98248C26.2774 5.44852 27.0425 5.94908 27.9111 6.24252C28.0837 6.30005 28.2678 6.48992 28.4289 6.31156C28.5842 6.13895 28.3944 5.95484 28.3426 5.78223C28.2966 5.64414 28.2563 5.5003 28.17 5.39099C27.054 3.87204 27.3359 2.16898 27.5372 0.483183C27.5775 0.132215 27.7386 -0.184232 28.1355 0.149475C29.1077 0.96073 30.2122 1.58787 31.1786 2.41639C32.0703 3.18736 32.7951 4.10794 33.6407 4.91919C34.1584 5.41975 34.2217 5.40825 34.4921 4.72357C34.6129 4.41288 34.7337 4.10218 34.8372 3.77998C35.5966 1.46129 36.9542 0.696065 39.6924 0.949223C40.4863 1.02402 41.0558 1.47855 41.6138 1.97336C41.9187 2.24378 41.8324 2.4394 41.539 2.65228C38.5707 4.83864 38.214 8.95245 40.7969 11.6048C42.3674 13.2159 44.1909 14.4586 46.3654 15.1433C46.8774 15.3044 47.1362 15.1836 47.1708 14.6197C47.4469 10.1434 49.9262 7.26665 53.861 5.49455C57.2435 3.97561 60.6548 3.94108 64.0545 5.45427C64.8081 5.78798 65.4179 6.32307 65.9356 6.97322C66.3901 7.54282 66.4304 8.16996 66.1025 8.7856C65.7976 9.36096 65.2338 9.6026 64.601 9.59685C63.6864 9.59685 62.8753 9.22287 62.1447 8.7108C60.5742 7.60036 58.8772 7.11131 56.9386 7.38748C56.093 7.5083 55.2301 7.49104 54.3845 7.69242C50.7834 8.56121 48.6664 11.7487 48.8045 15.5288C48.8217 15.9833 49.0864 16.1962 49.4488 16.3861C50.6913 17.0305 52.0374 17.3872 53.3663 17.7554C58.3998 19.142 63.485 20.2295 68.7486 20.0971C72.0449 20.0108 75.3296 19.8152 78.5165 18.8371C79.69 18.4746 80.7888 17.9683 81.8875 17.439C82.0773 17.3469 82.2442 17.2031 82.549 17.2318H82.5433ZM125.987 8.48066C126.689 8.41737 127.879 8.67628 129.076 8.91218C131.63 9.41274 133.868 10.4887 135.68 12.3873C138.05 14.8671 137.987 18.6702 135.507 21.058C135.099 21.455 135.059 21.7944 135.392 22.2375C135.691 22.6402 135.973 23.043 136.054 23.5723C136.134 24.1246 136.428 24.1361 136.859 23.86C137.67 23.3306 138.355 22.6632 138.941 21.9095C140.661 19.7001 141.058 17.1571 140.754 14.4529C140.552 12.6578 139.833 11.0583 138.545 9.81549C136.514 7.86502 134.121 6.4554 131.388 5.75346C127.592 4.78111 123.709 4.70631 119.854 5.20687C115.362 5.78798 111.047 7.11706 106.854 8.82012C103.845 10.0456 100.888 11.3747 98.0177 12.9109C95.5499 14.2342 93.1165 15.5863 90.8385 17.2203C90.4761 17.4793 90.3956 17.6749 90.827 17.9395C91.9487 18.6242 93.059 19.3262 94.1692 20.0281C94.6007 20.2985 94.9919 20.287 95.4348 20.0223C97.2354 18.9349 99.0071 17.813 100.819 16.737C105.542 13.9408 110.386 11.4553 115.713 9.9996C118.905 9.12506 122.144 8.61299 125.987 8.48641V8.48066ZM159.173 40.0448C159.162 38.7445 159.185 37.6283 159.047 36.5063C158.65 33.2268 157.643 30.1716 155.825 27.4042C154.836 25.8967 153.553 24.7057 151.885 23.9635C150.326 23.2674 148.681 23.2674 147.03 23.3652C144.188 23.532 142.019 24.9129 140.322 27.1338C139.971 27.594 139.983 27.9105 140.598 28.0601C141.047 28.1694 141.444 28.3823 141.806 28.6642C142.266 29.0209 142.629 29.0727 143.072 28.5549C145.074 26.2074 149.572 25.9773 151.931 28.5204C153.76 30.4938 154.75 32.8183 155.239 35.3901C155.681 37.7318 155.497 40.0966 155.256 42.4555C154.939 45.5107 154.261 48.4853 153.288 51.3908C152.092 54.9638 150.36 58.2894 148.548 61.5804C147.185 64.0545 145.499 66.3271 144.033 68.7321C143.808 69.1061 143.653 69.4571 143.86 69.8656C144.435 70.9933 145.016 72.121 145.925 73.0358C146.437 73.5479 146.713 73.5594 147.145 72.9783C147.599 72.3684 148.025 71.724 148.404 71.0681C151.649 65.4814 154.652 59.7853 156.677 53.6175C158.144 49.147 159.294 44.6304 159.173 40.0505V40.0448ZM154.583 39.7456C154.658 37.0184 153.956 34.0668 152.569 31.2821C151.649 29.4294 150.257 28.0889 148.105 27.876C146.454 27.7091 144.792 27.6458 143.526 29.0727C143.227 29.4064 143.193 29.5963 143.544 29.9415C145.718 32.0876 147.214 34.6077 147.892 37.6225C148.612 40.7985 149.055 44.0263 147.611 47.0354C146.702 48.9168 146.863 50.5048 147.57 52.2711C147.892 53.0824 148.157 53.9512 148.065 54.8545C147.777 57.5127 145.994 59.0489 143.9 60.3377C143.762 60.424 143.584 60.4988 143.44 60.3377C143.29 60.1708 143.428 60.0327 143.521 59.8946C144.832 57.9499 144.941 55.7866 144.648 53.5599C144.55 52.812 144.389 52.7775 143.82 53.2895C142.824 54.1813 141.835 55.0846 140.638 55.7175C140.029 56.0397 139.361 56.2469 138.786 56.6496C138.389 56.9258 138.245 57.2192 138.412 57.6738C138.677 58.393 138.924 59.1121 139.189 59.8313C139.931 61.8739 140.656 63.9279 141.783 65.8036C142.169 66.448 142.387 66.4652 142.957 65.9647C143.768 65.2512 144.481 64.4457 145.154 63.6057C148.462 59.4574 150.987 54.8718 152.759 49.8777C153.875 46.7362 154.611 43.5027 154.6 39.7456H154.583ZM136.215 16.9442C136.33 15.8165 136.157 14.7578 135.467 13.82C134.771 12.8764 133.885 12.1629 132.873 11.5991C129.87 9.90754 126.625 9.41274 123.214 9.52205C119.624 9.63713 116.23 10.5404 112.934 11.8407C109.598 13.1583 106.388 14.7578 103.419 16.7831C101.527 18.0719 99.6342 19.3779 98.2018 21.2248C97.8336 21.6966 97.8624 21.9498 98.3974 22.272C100.503 23.5378 102.827 24.2857 105.105 25.1315C105.663 25.3386 106.244 25.4825 106.819 25.6551C107.233 25.7817 107.492 25.6781 107.601 25.2063C107.717 24.6942 107.993 24.234 108.223 23.7622C108.902 22.341 109.908 21.1673 110.961 20.0166C111.07 19.9015 111.249 19.7864 111.162 19.5966C111.093 19.4412 110.915 19.4815 110.777 19.4873C108.574 19.539 106.307 19.1823 104.311 20.5344C104.161 20.638 103.966 20.7703 103.793 20.5977C103.621 20.4308 103.759 20.2295 103.839 20.0684C104.3 19.1075 104.961 18.279 105.72 17.5598C106.969 16.3803 108.401 15.7014 110.213 16.0696C111.364 16.3055 112.491 16.6105 113.59 17.0132C114.401 17.3066 115.149 17.2894 115.943 16.9384C118.549 15.7935 121.229 15.2411 124.106 15.6611C126.781 16.0524 129.358 16.6738 131.607 18.2502C132.481 18.8659 133.269 19.6081 134.104 20.287C134.777 20.8393 134.955 20.8163 135.461 20.0856C136.117 19.142 136.33 18.0834 136.226 16.9499L136.215 16.9442ZM136.313 44.6822C136.255 45.643 136.37 47.0987 136.462 48.5486C136.6 50.7292 137.152 52.8292 137.814 54.9005C137.975 55.4126 138.205 55.4931 138.752 55.3551C140.828 54.8372 142.324 53.5254 143.699 51.995C144.125 51.5232 144.165 51.0859 143.975 50.499C143.267 48.2897 142.249 46.2011 141.438 44.0378C140.466 41.4429 139.453 38.825 139.977 35.9713C140.334 34.015 140.5 31.9783 141.743 30.2867C142.008 29.9242 141.91 29.6596 141.553 29.4697C140.92 29.1303 140.282 28.8081 139.643 28.4858C139.407 28.3708 139.269 28.4053 139.166 28.693C138.809 29.6768 138.372 30.6377 138.033 31.6331C136.652 35.7066 136.301 39.924 136.301 44.6879L136.313 44.6822ZM120.993 27.7091C122.351 27.7954 123.939 27.594 125.532 27.4675C128.575 27.2258 131.526 26.6332 134.334 25.4077C135.703 24.8093 135.818 24.4756 135.087 23.158C134.961 22.9336 134.765 22.7438 134.621 22.5251C134.357 22.1339 134.063 22.0879 133.655 22.3525C130.83 24.2052 127.661 24.3088 124.474 23.9693C121.891 23.6931 119.498 22.6747 117.151 21.5873C115.891 21.0062 114.614 20.4769 113.308 20.0223C112.986 19.9073 112.67 19.8037 112.37 20.0799C110.731 21.5643 109.414 23.2558 108.844 25.448C108.706 25.9946 108.827 26.2592 109.414 26.4203C113.13 27.4272 116.921 27.7494 120.993 27.7149V27.7091ZM147.703 41.8054C147.634 40.4878 147.45 38.9286 146.989 37.4096C146.27 35.0564 145.241 32.8701 143.549 31.0347C142.727 30.1429 142.433 30.2062 141.973 31.2994C141.524 32.3695 141.254 33.4857 141.127 34.6192C140.851 37.0874 140.886 39.527 142.094 41.8169C143.135 43.7846 144.55 45.5222 145.557 47.5072C145.655 47.7028 145.735 48.0193 146.017 47.9905C146.282 47.9675 146.339 47.6683 146.443 47.4612C147.294 45.7638 147.685 43.963 147.697 41.8054H147.703ZM127.39 23.0142C129.663 23.0084 131.544 22.9049 133.235 21.8865C133.839 21.524 133.891 21.3169 133.367 20.8796C128.334 16.6853 122.811 15.0915 116.501 17.7209C116.357 17.7784 116.121 17.7554 116.121 17.9741C116.121 18.1582 116.34 18.21 116.472 18.2963C117.519 18.9694 118.56 19.6368 119.613 20.2985C122.109 21.8635 124.675 23.2156 127.385 23.0142H127.39Z" fill="#836D59"/>
<path d="M144.729 16.3055C145.241 15.2584 145.712 14.1882 146.069 13.0778C146.817 10.7533 146.851 8.47493 145.454 6.34035C145.362 6.19651 145.241 6.04692 145.362 5.88582C145.488 5.71321 145.661 5.83979 145.822 5.86856C146.529 5.98938 147.231 6.11021 147.939 6.20802C148.261 6.25405 148.531 6.36336 148.761 6.59351C149.049 6.88119 149.337 7.16886 149.63 7.44504C150.269 8.04916 150.447 8.0319 151.154 7.48531C153.582 5.6154 156.211 4.14824 159.22 3.42904C159.731 3.30821 160.249 3.23917 160.767 3.14711C161.216 3.06656 161.382 3.21616 161.273 3.6937C160.571 6.87543 159.271 9.75798 157.103 12.2263C155.929 13.5668 155.918 13.5899 157.016 14.9707C157.661 15.782 158.104 16.645 158.109 17.7037C158.121 18.7451 158.069 18.8084 157.166 18.3423C156.096 17.79 154.98 17.6001 153.783 17.5886C152.058 17.5656 150.631 18.4229 149.095 18.981C148.744 19.1075 148.324 19.6426 148.037 19.2399C147.76 18.8486 148.347 18.5725 148.618 18.3078C150.292 16.6623 151.758 14.8326 153.248 13.0318C153.737 12.4391 154.111 11.766 154.255 10.995C154.445 9.9651 154.042 9.59687 153.053 9.85579C152.368 10.0341 151.787 10.4024 151.206 10.7879C149.158 12.1457 147.473 13.9063 145.747 15.6324C145.465 15.9143 145.172 16.1732 144.878 16.4494C144.827 16.4034 144.769 16.3573 144.717 16.3113L144.729 16.3055Z" fill="#836D59"/>
<path d="M133.362 33.0601C133.218 33.8369 132.729 34.2339 132.453 34.7517C131.343 36.8287 131.573 38.8367 132.689 40.8275C132.844 41.1037 133.212 41.4316 132.999 41.7193C132.752 42.053 132.332 41.7596 131.998 41.6848C131.463 41.5697 130.934 41.4143 130.411 41.2532C130.094 41.1554 129.778 41.0346 129.565 40.7469C129.041 40.0392 128.731 39.9932 128.018 40.5283C127.367 41.0173 126.729 41.5122 126.079 42.0012C124.324 43.3303 122.403 44.4062 120.499 45.4879C119.803 45.8791 118.986 46.0575 118.209 46.2876C117.749 46.4257 117.766 46.115 117.835 45.7871C118.14 44.3717 118.71 43.0484 119.446 41.8228C120.723 39.694 121.954 37.5249 123.795 35.8046C124.186 35.4421 124.077 35.0912 123.738 34.8323C122.731 34.0785 122.639 32.9278 122.374 31.8519C122.322 31.639 122.311 31.4031 122.484 31.2478C122.696 31.0579 122.886 31.265 123.065 31.3571C125.532 32.6229 127.92 32.5768 130.215 30.9313C130.399 30.799 130.641 30.4193 130.859 30.7069C131.026 30.9313 130.658 31.15 130.48 31.3168C129.341 32.3755 128.213 33.4341 127.206 34.6251C126.585 35.3616 126.039 36.1383 125.682 37.0359C125.515 37.4559 125.446 37.8759 125.78 38.2499C126.131 38.6469 126.539 38.434 126.902 38.2844C127.632 37.9852 128.294 37.5825 128.898 37.0474C130.267 35.8219 131.699 34.6654 132.936 33.296C133.005 33.2155 133.132 33.1867 133.362 33.0601Z" fill="#836D59"/>
</g>
<defs>
<clipPath id="clip0_702_540">
<rect width="164" height="164" fill="white"/>
</clipPath>
</defs>
</svg>
