<svg width="214" height="56" viewBox="0 0 214 56" fill="none" xmlns="http://www.w3.org/2000/svg">
<g clip-path="url(#clip0_702_536)">
<path d="M125.029 21.2859C122.979 21.2219 121.107 21.5061 119.278 22.1882C115.655 23.5452 113.399 26.6074 113.264 30.4724C113.207 32.1846 113.164 33.9182 113.876 35.5239C115.278 38.6784 117.776 40.5257 121.079 41.3996C124.082 42.2024 126.631 41.3569 129.015 39.5026C131.997 37.1722 131.535 31.8649 129.378 30.1811C127.819 28.9662 126.082 29.023 124.31 29.1438C123.193 29.2219 122.082 29.4422 121.079 30.0035C120.46 30.3516 120.317 30.0177 120.445 29.4848C120.858 27.7868 121.912 26.6003 123.534 25.9821C126.218 24.9662 129.513 25.8756 131.335 28.071C131.599 28.3907 131.848 28.7175 132.076 29.0656C132.382 29.5345 132.631 29.5416 133.029 29.1154C133.947 28.1136 135.115 28.0639 136.19 28.8738C136.674 29.2432 136.723 29.5843 136.175 29.8827C134.83 30.6145 134.268 31.8294 133.99 33.2504C133.862 33.9182 133.656 34.5647 133.528 35.2326C132.581 40.3054 127.086 43.2468 122.502 42.7992C118.282 42.3871 115.285 40.2912 113.121 36.7885C112.153 35.2255 111.876 33.4777 111.854 31.6944C111.819 29.3285 112.21 27.0408 113.591 25.0372C115.143 22.7708 117.285 21.3356 119.94 20.6678C124.759 19.4599 129.414 20.1917 134.033 21.7619C136.332 22.5434 138.567 23.467 140.83 24.3338C141.677 24.6607 142.033 24.4688 142.56 23.8365C145.08 20.8241 148.425 19.7157 152.226 20.1562C156.155 20.6109 159.358 22.5079 161.827 25.6198C162.546 26.5221 162.724 26.5008 163.329 25.5417C163.991 24.4901 164.703 23.467 165.543 22.5576C168.233 19.6447 171.621 19.0408 175.365 19.6518C177.572 20.0141 179.437 21.0159 180.981 22.6287C181.287 22.9484 181.622 23.2468 181.914 23.5736C182.383 24.1065 182.753 24.0354 183.202 23.5097C184.405 22.1171 185.75 20.8667 187.401 20.0212C188.583 19.4173 189.188 19.7157 189.586 21.0088C189.743 21.5132 189.835 22.039 189.921 22.5647C190.12 23.7797 190.177 23.8294 191.302 23.2468C193.48 22.1171 195.665 20.9804 198.042 20.3196C202.014 19.2255 205.929 19.19 209.687 21.1438C211.623 22.1527 212.989 23.6944 213.872 25.6695C213.957 25.8614 214.164 26.1313 213.858 26.2877C213.63 26.4084 213.502 26.1527 213.359 26.0106C210.413 23.2823 206.84 22.7139 203.032 23.1331C200.526 23.4031 198.256 24.4049 196.056 25.5985C190.426 28.6536 184.896 31.9218 178.917 34.309C171.984 37.0798 165.038 37.0301 158.048 34.5718C157.443 34.3587 157.116 34.3871 156.774 34.9981C155.03 38.1456 151.286 39.6162 147.72 38.7921C142.361 37.5559 139.478 32.1349 140.809 27.3178C141.001 26.6287 140.83 26.174 140.204 25.8614C135.385 23.4457 130.559 21.0443 125.043 21.2788L125.029 21.2859ZM167.28 34.4724C167.963 34.4724 168.639 34.5079 169.322 34.4724C171.579 34.3303 173.693 33.769 175.515 32.3623C177.935 30.4866 178.177 26.65 175.992 24.5257C173.707 22.3019 169.643 22.5434 167.066 24.1988C165.415 25.2646 164.226 26.8489 163.187 28.5186C163.037 28.7601 162.98 29.1438 162.639 29.158C162.269 29.1722 162.247 28.7601 162.112 28.5257C159.77 24.5541 156.632 21.7051 151.792 21.3853C148.624 21.1722 145.642 21.5985 143.571 24.4617C143.122 25.0869 143.129 25.3569 143.813 25.7264C146.539 27.1971 149.236 28.7388 151.962 30.2095C153.258 30.9058 154.518 31.6873 155.927 32.1775C156.397 32.3409 156.667 32.3409 156.646 31.737C156.582 29.9537 156.254 28.2699 154.845 26.9981C154.582 26.7637 154.297 26.5505 154.026 26.3232C153.863 26.1811 153.521 26.0887 153.706 25.8045C153.841 25.5914 154.098 25.769 154.261 25.8685C154.717 26.1385 155.187 26.4013 155.592 26.7424C157.158 28.0567 157.813 29.7832 157.642 31.7797C157.557 32.7956 157.97 33.1438 158.888 33.4138C161.642 34.2237 164.447 34.5008 167.294 34.4866L167.28 34.4724ZM141.791 30.1598C141.869 30.6358 141.855 31.1047 141.962 31.5736C142.66 34.6358 145.215 37.8472 149.493 37.8329C152.069 37.8329 154.176 37.0301 155.564 34.7495C156.098 33.8756 156.055 33.7122 155.151 33.3001C153.165 32.3978 151.158 31.531 149.243 30.4724C147.229 29.3569 145.151 28.3694 143.129 27.2681C142.496 26.9271 142.232 27.1473 142.133 27.7086C141.983 28.5186 141.905 29.3356 141.798 30.1527L141.791 30.1598Z" fill="#836D59"/>
<path d="M88.8001 21.2575C84.9138 21.1367 81.3336 22.2806 77.8673 23.8791C76.636 24.4475 75.4331 25.087 74.2017 25.6695C73.3476 26.0745 73.127 26.6145 73.369 27.5736C74.4295 31.7157 72.1803 36.5186 68.351 38.1385C64.1658 39.9147 59.6319 39.0976 57.162 34.8489C56.8916 34.38 56.6068 34.3232 56.1513 34.515C51.7241 36.3267 47.062 36.6536 42.3786 36.2841C39.7949 36.0781 37.2966 35.2113 34.8766 34.2379C30.5348 32.4901 26.4137 30.309 22.3993 27.9147C20.5202 26.7992 18.57 25.8045 16.6198 24.817C14.1001 23.5452 11.3954 22.8632 8.5839 22.9271C5.60871 22.991 2.90399 23.9502 0.718866 26.0887C0.55516 26.2521 0.398571 26.5434 0.149452 26.3871C-0.163725 26.1953 0.0782755 25.904 0.170805 25.6766C1.48046 22.6855 3.92894 21.0514 6.93971 20.1562C10.8188 19.0052 14.5983 19.5452 18.3066 20.9662C19.8583 21.563 21.3174 22.3374 22.7338 23.2042C23.8157 23.8649 23.8655 23.8223 24.1502 22.6216C24.314 21.9324 24.499 21.2433 24.7481 20.5896C25.0827 19.7299 25.5809 19.531 26.435 19.9005C27.6806 20.4262 28.6629 21.3356 29.6664 22.2024C30.1576 22.6287 30.6558 23.0479 31.1042 23.5168C31.5811 24.0141 31.8872 24.0283 32.3498 23.4457C34.5776 20.6109 37.624 19.4813 41.133 19.4244C43.8449 19.3818 46.1723 20.3623 48.1083 22.2166C49.1973 23.2539 50.1938 24.3907 50.9341 25.7193C51.3754 26.5008 51.5604 26.4937 52.1298 25.8045C54.9128 22.3942 58.4361 20.2344 62.8846 20.0639C66.1161 19.9431 69.0841 20.8525 71.255 23.5239C72.3227 24.8312 72.4508 24.7886 74.0024 24.0852C76.5007 22.9484 79.0062 21.8258 81.6753 21.1083C85.7893 20.0141 89.9389 19.5523 94.1028 20.7033C98.8289 22.0106 101.939 25.0656 102.26 30.4937C102.559 35.6376 100.089 39.872 95.327 41.8614C91.213 43.5807 85.6043 43.3108 82.1379 38.8703C80.7927 37.1509 80.4795 35.1047 80.0453 33.1083C79.7393 31.7157 79.1343 30.6358 77.91 29.9111C77.3335 29.5701 77.2695 29.2504 77.9243 28.9235C79.6681 28.0497 80.3656 28.0781 81.1842 29.2646C81.6184 29.8969 81.8461 29.3569 82.0739 29.0443C83.3551 27.2823 84.9352 26.0177 87.1701 25.6766C90.2023 25.2077 92.5867 26.6784 93.3198 29.5488C93.3696 29.7406 93.512 29.9679 93.3412 30.1314C93.1205 30.3516 92.8999 30.1314 92.7077 30.0319C90.6151 28.9022 88.3873 28.8738 86.1452 29.3356C84.6007 29.6553 83.6255 30.7637 83.1842 32.2273C82.7358 33.7193 82.7002 35.2965 83.1415 36.7672C83.7964 38.9129 85.4619 40.2841 87.4548 41.0727C92.1312 42.9271 98.2524 40.5541 100.01 35.8365C102.338 29.5914 100.117 22.4937 91.8678 21.4351C90.8357 21.3001 89.8037 21.293 88.7716 21.2575H88.8001ZM60.3152 25.7193C60.3009 26.1171 60.0447 26.2521 59.8454 26.4013C58.1443 27.6802 57.5179 29.4422 57.5108 31.5026C57.5108 32.1349 57.6247 32.3552 58.3151 32.1065C60.0162 31.4884 61.575 30.5861 63.1551 29.7193C65.5111 28.4262 67.8457 27.0976 70.1945 25.7903C70.6073 25.5559 70.9988 25.3143 70.6429 24.7601C69.8955 23.602 69.0343 22.6145 67.6606 22.1171C65.9025 21.4848 64.1231 21.3427 62.2654 21.3996C59.1906 21.4919 56.6638 22.6287 54.6353 24.9235C53.5961 26.1029 52.6281 27.325 51.9875 28.7743C51.7739 29.2646 51.5248 29.5132 51.1903 28.8454C50.6351 27.7512 49.7525 26.9058 48.9269 26.0248C47.5888 24.5896 46.0442 23.5381 44.0655 23.1331C40.5209 22.4084 36.7984 23.8081 36.656 28.1917C36.5991 29.9253 37.1115 31.3108 38.5493 32.3196C40.0013 33.3427 41.6384 34.0035 43.3609 34.2735C47.603 34.9413 51.7739 34.3232 55.888 33.2148C56.2937 33.1083 56.4574 32.8312 56.4503 32.4262C56.4503 32.0994 56.4431 31.7797 56.4503 31.4528C56.5143 28.6749 57.9521 26.5221 60.3294 25.7193H60.3152ZM72.2515 30.2095C72.2159 29.6198 72.2301 29.023 72.1376 28.4475C71.9027 27.0763 71.6394 26.92 70.408 27.5452C68.1517 28.6962 65.9025 29.8756 63.6818 31.1047C62.0732 31.9999 60.3365 32.5754 58.6994 33.3854C58.1087 33.6767 58.0375 33.9822 58.3934 34.5505C60.2297 37.499 63.8313 38.7282 67.1481 37.4422C69.9596 36.3481 72.4152 33.7832 72.2515 30.2024V30.2095Z" fill="#836D59"/>
<path d="M111.669 46.0959C109.79 46.0888 109.812 46.0888 109.733 47.524C109.598 50.0107 109.228 52.4547 108.039 54.6998C107.861 55.0409 107.648 55.3606 107.456 55.6874C107.192 56.1279 106.95 56.0924 106.666 55.6874C105.854 54.5364 105.327 53.2576 105.043 51.8863C104.722 50.3233 104.523 48.746 104.473 47.1545C104.445 46.2025 104.281 46.0675 103.363 46.1741C102.018 46.3304 100.309 45.3926 99.676 44.1634C99.4696 43.7656 99.5906 43.5453 100.003 43.46C102.345 42.9627 103.633 41.2789 104.658 39.3251C105.356 37.9894 105.747 36.5258 106.167 35.0764C106.288 34.6572 106.274 34.3091 105.719 34.2309C105.278 34.167 104.9 33.9609 104.893 33.4636C104.893 32.9663 105.085 32.4902 105.577 32.3126C106.473 31.9929 106.452 31.4032 106.295 30.6217C105.754 27.9787 104.915 25.4352 103.762 22.9982C102.317 19.9503 100.117 17.7478 96.7578 16.8171C95.2915 16.4121 95.142 15.8153 96.0175 14.5364C96.7933 13.4068 98.8646 12.6252 100.203 12.9947C100.651 13.1155 101.1 13.3073 101.512 13.5275C103.228 14.4512 103.221 14.4583 103.235 12.4547C103.263 8.67497 103.619 4.96627 105.612 1.61991C105.989 0.994684 106.31 0.0213275 106.972 0.00711793C107.712 1.31349e-05 108.018 0.994684 108.417 1.63412C109.854 3.94317 110.054 6.57905 110.431 9.1723C110.659 10.6998 110.595 12.2345 110.623 13.762C110.637 14.6004 110.772 14.6643 111.477 14.2096C112.367 13.627 113.257 13.0799 114.374 12.9592C115.833 12.8029 117.669 13.7265 118.31 15.0196C118.808 16.0213 118.63 16.4405 117.534 16.7176C114.346 17.5275 112.118 19.5169 110.602 22.3517C109.135 25.1084 108.21 28.0569 107.648 31.119C107.562 31.6021 107.648 31.9219 108.139 32.0924C108.274 32.1421 108.402 32.2274 108.523 32.3055C108.915 32.5613 109.207 32.8881 109.15 33.3926C109.1 33.8544 108.779 34.1101 108.352 34.238C107.989 34.3517 107.669 34.5222 107.826 34.9911C108.538 37.0728 108.957 39.2895 110.438 41.0444C111.406 42.1883 112.495 43.1688 114.039 43.4529C114.452 43.5311 114.808 43.7158 114.445 44.135C113.57 45.151 112.595 46.0675 111.648 46.0817L111.669 46.0959Z" fill="#836D59"/>
</g>
<defs>
<clipPath id="clip0_702_536">
<rect width="214" height="56" fill="white"/>
</clipPath>
</defs>
</svg>
