<svg width="87" height="139" viewBox="0 0 87 139" fill="none" xmlns="http://www.w3.org/2000/svg">
<g clip-path="url(#clip0_702_574)">
<path d="M26.8791 111.35C26.5427 111.056 26.2438 111.232 25.9652 111.32C24.0457 111.933 22.3064 112.916 20.6213 113.993C18.0836 115.61 15.7904 117.545 13.7419 119.73C11.4624 122.163 9.52254 124.86 7.76616 127.696C6.83192 129.204 5.90447 130.712 5.12311 132.304C5.0076 132.542 4.8785 132.833 4.58294 132.833C4.2636 132.833 4.10733 132.538 3.97823 132.281C3.01341 130.336 3.11873 128.32 3.65889 126.31C4.45045 123.359 6.00299 120.852 8.13306 118.649C11.9652 114.681 16.4937 111.842 21.6439 109.9C24.0831 108.982 26.5903 108.311 29.0771 107.569C30.3239 107.196 30.4903 107.291 30.4224 108.538C30.2695 111.239 30.4054 113.949 30.0555 116.636C29.6954 119.374 28.2244 121.438 26.0094 123.017C25.4488 123.417 24.783 123.508 24.1205 123.61C23.9336 123.637 23.6619 123.617 23.6177 123.85C23.5701 124.101 23.8521 124.138 24.0152 124.226C26.9232 125.778 29.5934 124.999 31.428 122.088C32.3078 120.696 32.5762 119.184 32.4301 117.568C32.3724 116.928 32.3316 116.284 32.3384 115.644C32.3452 115.105 32.5864 114.996 32.9941 115.356C33.5343 115.827 34.122 116.206 34.7708 116.504C36.6054 117.341 38.783 117.087 40.3933 115.877C42.6083 114.217 43.94 111.882 45.6352 109.826C46.5287 108.745 47.5343 107.776 48.5195 106.783C48.8524 106.447 49.3348 106.339 49.7459 106.126C49.9803 106.004 50.2827 105.848 50.2351 105.563C50.1909 105.299 49.8546 105.289 49.6202 105.258C47.2659 104.926 45.3397 105.702 43.8483 107.542C43.5289 107.938 43.2334 108.355 42.9412 108.772C42.6966 109.117 42.4316 109.199 42.1395 108.843C41.4294 107.976 40.4544 108.077 39.4964 108.115C39.3367 108.121 39.1703 108.152 39.0989 108.311C39.0072 108.511 39.1533 108.65 39.279 108.772C39.7342 109.206 40.1011 109.7 40.3797 110.263C40.9368 111.381 40.8077 112.486 39.9788 113.404C39.3537 114.092 38.7422 114.8 37.9575 115.325C36.7548 116.128 35.4027 116.037 34.2545 115.145C31.8798 113.302 31.0848 110.876 31.4449 107.965C31.5401 107.21 31.7711 106.844 32.5796 106.647C35.7696 105.875 38.9698 105.106 42.0851 104.062C47.9148 102.11 53.5508 99.7485 58.6127 96.1872C60.9092 94.5744 62.9985 92.7344 64.918 90.6946C66.5589 88.9496 67.9076 86.9911 68.8622 84.8157C69.4465 83.484 69.6503 82.0067 69.5858 80.5192C69.5756 80.3226 69.4193 80.0346 69.7149 79.9364C69.9561 79.855 70.1124 80.0888 70.2686 80.2413C70.8292 80.7801 71.3693 81.3188 72.1507 81.5662C73.7134 82.0643 74.8515 81.2138 75.3577 79.7907C75.4902 79.4145 75.3169 79.2756 74.9806 79.3197C73.6897 79.4925 72.7656 78.8114 71.9163 78.0016C70.0342 76.2125 68.1895 74.3827 66.2905 72.6106C63.7289 70.2217 60.7496 69.256 57.2776 70.1336C57.0194 70.198 56.7952 70.1811 56.5811 70.0388C56.4351 69.9405 56.2584 69.8524 56.1633 69.7135C55.8507 69.2662 55.0626 69.0629 55.2324 68.3886C55.4397 67.572 56.4894 67.0163 57.4135 67.1518C58.7724 67.3484 60.1245 67.3314 61.4562 67.0332C63.3145 66.6131 64.8195 65.5491 66.1478 64.248C67.5271 62.896 68.8894 61.527 70.1056 60.0226C70.8224 59.1382 71.7125 58.43 72.5652 57.688C73.0612 57.2542 73.6421 56.8917 74.3691 56.9425C74.6783 56.9628 74.7462 56.8002 74.7122 56.5257C74.5967 55.6109 73.8697 54.9637 72.9321 54.9738C71.7125 54.9874 70.7001 55.4855 69.8406 56.3258C69.6877 56.4749 69.5484 56.7324 69.3038 56.6579C69.0388 56.5766 69.1102 56.2818 69.0966 56.0785C68.8214 52.2631 66.817 49.3287 64.3744 46.5604C62.5433 44.4833 60.3453 42.8602 58.0725 41.3829C55.6265 39.7937 53.0582 38.3705 50.3506 37.2185C45.3906 35.1109 40.3491 33.2947 35.0188 32.3662C33.4459 32.0918 31.924 31.5429 30.3272 31.3734C29.9943 31.3362 29.9604 31.1058 29.9536 30.8482C29.9196 29.5844 29.8992 28.3205 30.0351 27.0634C30.2457 25.1286 31.4483 23.78 32.9363 22.716C34.1084 21.8791 35.7051 22.14 36.9485 23.1734C37.3222 23.4852 37.6823 23.824 37.9948 24.1968C39.245 25.6809 39.228 26.9854 37.9778 28.7203C37.8046 28.9609 37.4581 29.1913 37.6585 29.52C37.8318 29.8046 38.2191 29.7436 38.5214 29.7436C39.3333 29.7436 40.0536 29.4929 40.5801 28.8355C40.9063 28.4255 41.1543 28.4357 41.4226 28.9067C42.1666 30.2248 43.264 31.143 44.6296 31.797C45.8662 32.39 47.1504 32.1934 48.4278 32.1629C48.6078 32.1596 48.7981 32.0816 48.8218 31.8682C48.8456 31.6547 48.6656 31.5666 48.4991 31.4954C45.7405 30.3264 43.7769 28.2629 42.0817 25.8774C40.784 24.0544 39.2009 22.5296 37.2305 21.4081C36.1535 20.7948 35.0732 20.7778 33.9589 21.1302C32.8956 21.4691 31.9138 21.9875 31.0475 22.7058C30.9218 22.8109 30.7995 23.0142 30.599 22.899C30.385 22.777 30.4699 22.4992 30.4529 22.3162C30.4122 21.9231 30.3952 21.5301 30.4597 21.1404C30.8402 18.843 29.9366 17.0573 28.469 15.4749C27.4906 14.4211 26.3661 13.6486 24.8951 13.4588C23.6754 13.303 22.6257 13.7231 21.6269 14.3568C21.4944 14.4415 21.3551 14.533 21.4027 14.7227C21.4435 14.882 21.5895 14.8854 21.722 14.9057C25.0106 15.353 26.7941 17.4978 27.8269 20.4051C28.5573 22.4585 28.4961 24.6406 28.6592 26.7821C28.7407 27.863 28.9752 28.9338 28.9412 30.0248C28.9174 30.8211 28.7917 30.9329 28.0137 30.7635C24.0593 29.9096 20.1287 28.971 16.4155 27.3073C13.5075 26.0028 10.8373 24.3357 8.30293 22.3941C5.61571 20.3373 3.44827 17.9316 2.09277 14.8311C1.34877 13.1335 0.845978 11.3716 0.825592 9.50115C0.812004 8.34231 1.36575 7.36644 1.86855 6.38041C2.05879 6.00768 2.19807 6.28215 2.33736 6.45834C3.03719 7.35289 3.53999 8.36942 4.16169 9.31479C6.79455 13.3233 9.5633 17.2234 13.178 20.4424C16.3068 23.2277 19.789 25.4335 23.7672 26.8194C24.0899 26.9312 24.416 27.0905 24.8271 27.0091C24.732 26.694 24.4908 26.6432 24.2768 26.5687C21.2464 25.4945 18.6475 23.7359 16.12 21.7673C13.5143 19.7376 11.3503 17.325 9.32549 14.7769C7.02896 11.89 5.17746 8.70826 3.68607 5.32322C3.44827 4.78107 3.58755 4.44562 3.94766 4.02884C6.65866 0.901326 11.7817 0.847111 15.1246 4.55405C16.1268 5.66884 16.7892 7.03776 17.1663 8.48801C17.3736 9.27751 17.7031 10.006 18.4063 10.5346C18.8582 10.8769 19.2726 10.9175 19.7414 10.5821C20.4515 10.0738 20.8354 8.91156 20.6145 8.03396C20.2612 6.64132 19.4934 5.46892 18.5864 4.40496C15.8006 1.14529 12.2777 -0.403218 7.9666 0.108434C6.12189 0.328682 4.61691 1.36554 3.18668 2.47017C2.64311 2.89033 2.2898 3.17835 1.7972 3.85264C1.35217 4.46256 1.26383 4.70653 1.11096 5.01826C-0.512924 8.3457 -0.220757 11.6359 1.16872 14.9768C2.49704 18.1687 4.74601 20.5813 7.29395 22.8007C8.80911 24.1188 10.45 25.2539 12.2132 26.1891C16.154 28.2832 20.302 29.8351 24.7048 30.6686C25.8803 30.8923 27.0251 31.2684 28.1904 31.553C28.7951 31.7021 29.1518 32.0139 29.2503 32.661C29.4168 33.7589 29.8346 34.7957 30.1472 35.8563C30.3782 36.6492 30.2287 36.8254 29.4066 36.7746C27.2188 36.6323 25.1091 36.0766 23.013 35.4938C19.0484 34.3993 15.2775 32.8237 11.9108 30.4484C9.78752 28.9473 7.82051 27.2396 6.70621 24.7863C6.65186 24.6677 6.6111 24.5051 6.44463 24.5458C6.29855 24.583 6.32573 24.7626 6.27477 24.8812C4.92606 27.9477 6.15587 30.3874 8.19082 32.6136C9.54292 34.0943 11.1838 35.0499 13.1678 35.5141C15.7837 36.124 18.4233 36.656 20.978 37.5099C21.2872 37.6149 21.6201 37.6624 21.9802 38.0046C21.1819 38.0554 20.4854 38.0351 19.8026 38.1469C18.3859 38.3739 17.112 38.8686 16.1743 40.0512C16.103 40.1393 16.0418 40.2342 15.9909 40.3358C15.804 40.6916 15.6342 41.1152 15.8516 41.4608C16.0826 41.8267 16.5107 41.5692 16.8368 41.5014C20.4719 40.7831 24.1307 40.2816 27.8371 40.1088C28.6932 40.0681 29.5425 39.9665 30.3918 39.8648C30.9455 39.7971 31.2785 39.997 31.4449 40.529C32.3588 43.4227 33.9011 46.025 35.2533 48.7154C35.4231 49.0509 35.3348 49.2169 35.0834 49.4405C33.6532 50.6909 32.865 52.2902 32.5558 54.1471C32.3962 55.1128 32.6815 55.9463 33.2625 56.6918C33.6498 57.1899 34.1424 57.3491 34.7335 57.0442C35.3042 56.7528 35.4401 56.2784 35.2702 55.699C35.1038 55.1263 34.9237 54.5537 34.7233 53.9912C34.336 52.9001 34.8898 51.2635 35.858 50.6333C36.2181 50.3995 36.3981 50.6299 36.551 50.884C37.577 52.629 38.8272 54.2114 40.0909 55.7837C41.9322 58.0776 44.0453 60.0836 46.3962 61.8591C48.0643 63.1196 49.7901 64.2717 51.6144 65.2882C52.569 65.8202 53.561 66.2505 54.5938 66.6063C54.8995 66.7113 55.4125 66.7588 55.2868 67.2399C55.1747 67.6669 54.7466 67.8905 54.2914 67.8668C53.8498 67.8431 53.4149 67.7245 52.9767 67.6567C52.056 67.5144 51.2101 67.6262 50.5307 68.3513C50.1128 68.7952 50.1366 68.9951 50.636 69.3374C51.7231 70.0794 52.8136 69.9134 53.9211 69.395C54.4545 69.1476 55.1713 69.4661 55.3446 70.0151C55.4702 70.4115 55.1203 70.442 54.8927 70.5335C53.4251 71.1298 52.0594 71.899 50.7413 72.7766C47.2455 75.1045 44.1676 77.9067 41.3955 81.041C39.9686 82.6539 38.8102 84.4735 37.6585 86.2897C37.6483 86.31 37.6347 86.3269 37.6245 86.3473C36.85 87.6044 36.4933 87.6145 35.6609 86.3574C35.2261 85.7035 35.0494 84.9885 35.328 84.2058C35.5352 83.623 35.7561 83.0368 35.8953 82.4336C36.0822 81.617 35.8002 81.0816 35.1819 80.8614C34.7267 80.6988 34.37 80.7801 34.054 81.1562C32.9058 82.5285 33.0926 84.0533 33.6396 85.5544C34.0608 86.7132 34.8286 87.6823 35.7764 88.4786C36.2283 88.8615 36.2045 89.2376 35.9429 89.7018C34.5942 92.0839 33.5886 94.615 32.7257 97.2004C32.3724 98.2542 32.3486 98.3118 31.2479 98.3118C26.682 98.3016 22.1467 97.9323 17.6487 97.1563C16.9931 97.0445 16.8878 97.1462 17.0406 97.7968C17.2411 98.6405 17.7235 99.2606 18.4947 99.6807C19.4561 100.206 20.4786 100.443 21.5624 100.457C21.9632 100.46 22.3641 100.463 22.7616 100.48C22.8363 100.484 22.9484 100.538 22.9756 100.599C23.0402 100.735 22.9111 100.792 22.8125 100.829C22.252 101.039 21.705 101.314 21.1241 101.439C19.079 101.876 17.061 102.429 15.094 103.12C12.5427 104.015 10.1137 105.139 8.5713 107.562C7.38227 109.433 6.81493 111.374 7.55893 113.553C7.60989 113.699 7.66764 113.844 7.74578 113.976C7.9666 114.342 8.13306 114.427 8.4626 114.004C10.2428 111.727 12.152 109.538 14.4961 107.843C17.1833 105.898 20.2137 104.54 23.3255 103.377C25.4148 102.598 27.5891 102.127 29.7531 101.632C29.8822 101.602 30.0147 101.575 30.1438 101.555C31.8152 101.287 31.5638 101.612 30.9489 104.12C30.8504 104.519 30.8029 104.929 30.7519 105.339C30.667 106.058 30.3035 106.454 29.6648 106.664C27.426 107.396 25.2144 108.206 22.9552 108.863C17.9579 110.314 13.392 112.594 9.4478 115.969C6.22382 118.724 3.71664 122.065 2.65671 126.246C1.97386 128.94 2.21846 131.627 3.55358 134.127C3.56377 134.144 3.57397 134.165 3.58416 134.182C3.98164 134.927 4.51839 135.588 5.16387 136.133C5.40168 136.333 5.58513 136.489 5.81953 136.689C8.99596 139.383 12.5223 139.576 16.2491 138.082C19.4459 136.801 21.6711 134.541 22.8499 131.295C23.1115 130.576 23.1455 129.821 23.0436 129.062C22.9518 128.391 22.5578 127.961 21.9361 127.781C21.3551 127.615 20.832 127.835 20.4277 128.262C19.84 128.879 19.5648 129.655 19.4391 130.475C19.1673 132.237 18.4029 133.69 16.9693 134.802C16.3408 135.29 15.7972 135.879 15.1178 136.313C12.2165 138.16 8.71399 137.529 6.26797 135.005C5.97242 134.7 5.9996 134.388 6.10831 134.026C6.47861 132.782 7.10709 131.654 7.7186 130.526C10.0321 126.27 12.5835 122.17 16.0656 118.741C18.2467 116.592 20.4956 114.522 23.2066 113.021C24.202 112.469 25.2552 112.062 26.3151 111.669C26.4986 111.601 26.7058 111.581 26.8791 111.361V111.35ZM60.7496 87.9398C61.2422 87.5129 61.8367 86.5506 62.4516 85.5984C63.7595 83.5688 64.4831 81.3832 64.3812 78.9469C64.2487 75.7686 61.66 73.3628 58.4598 73.4882C57.9299 73.5085 57.6785 73.312 57.5969 72.8071C57.5222 72.3497 57.4305 71.8956 57.1315 71.5093C56.8156 71.0993 56.9922 70.896 57.4576 70.7876C58.3375 70.5843 59.2242 70.5572 60.1075 70.6521C62.6962 70.9231 64.6564 72.2955 66.2701 74.237C67.3436 75.528 67.9517 77.0325 67.9483 78.6962C67.9483 81.3053 67.3504 83.8127 66.0561 86.0931C64.2623 89.2545 61.8095 91.8975 58.9898 94.1542C55.7047 96.7836 52.0322 98.8167 48.1866 100.521C45.428 101.744 42.6287 102.866 39.7478 103.794C37.2712 104.594 34.7912 105.35 32.2297 105.821C31.7371 105.912 31.574 105.793 31.839 105.034C32.1754 104.069 32.3894 103.066 32.4641 102.046C32.5117 101.416 32.7733 101.09 33.3202 100.945C35.2091 100.443 37.1048 99.9755 38.9902 99.4571C43.906 98.0983 48.6995 96.4583 53.1092 93.8357C55.7522 92.2635 58.188 90.4303 60.7462 87.9432L60.7496 87.9398ZM60.9942 45.4693C61.8537 46.313 62.618 47.0178 63.2839 47.831C65.2237 50.2063 66.6234 52.8425 67.3062 55.8345C67.6799 57.4677 67.646 59.0874 67.0718 60.6799C66.5317 62.1708 65.4717 63.2687 64.3438 64.3123C62.4006 66.1048 60.0769 66.6673 57.495 66.3725C56.9616 66.3115 56.7544 66.098 57.05 65.5932C57.2674 65.2204 57.3795 64.8206 57.4237 64.397C57.4814 63.8583 57.6819 63.5838 58.3137 63.6211C61.1776 63.7939 64.2317 60.9307 64.0483 57.7185C63.9056 55.228 62.985 53.0695 61.5785 51.0941C60.2943 49.2914 58.5923 47.8954 56.8529 46.54C54.6006 44.7848 52.1715 43.3278 49.5964 42.1114C46.4336 40.6137 43.0873 39.631 39.7172 38.7297C37.1829 38.052 34.5738 37.7166 32.0157 37.1473C31.6216 37.0592 31.2853 36.9372 31.146 36.5306C30.7587 35.4192 30.3816 34.3078 30.3544 33.1117C30.3442 32.6238 30.7417 32.2748 31.2275 32.3391C31.9138 32.4272 32.6 32.5526 33.2761 32.7186C39.1091 34.1418 44.8641 35.7953 50.2996 38.4112C54.2404 40.3087 58.0114 42.44 60.9976 45.4659L60.9942 45.4693ZM58.2322 48.729C60.1075 50.4333 61.6328 52.7985 62.6045 55.5126C63.2499 57.3186 63.2533 59.1111 62.0099 60.6901C61.0587 61.8998 60.026 63.0518 58.256 62.9841C57.8381 62.9671 57.6886 62.8722 57.6819 62.4148C57.6479 59.5821 56.9209 56.9628 55.3412 54.5706C53.6731 52.0462 51.7978 49.6743 48.8524 48.7086C47.0077 48.1055 46.0463 46.9771 45.3159 45.3676C44.9796 44.629 44.5685 43.8937 43.9026 43.3786C41.9356 41.8606 39.758 42.0673 37.543 42.64C37.3969 42.6772 37.2305 42.7484 37.2474 42.9483C37.2644 43.1584 37.4445 43.1516 37.5974 43.1787C39.7444 43.5514 41.263 44.8729 42.5675 46.496C43.0058 47.0415 42.9242 47.1703 42.2142 47.2245C40.9742 47.316 39.7308 47.3939 38.535 47.7904C37.9235 47.9903 37.3562 48.302 36.7175 48.4308C36.2758 48.5189 35.9871 48.4308 35.79 48.0208C35.4809 47.3838 35.1547 46.7535 34.8422 46.1165C33.9521 44.3071 33.045 42.501 32.5151 40.5425C32.3316 39.8682 32.4607 39.7124 33.164 39.6514C34.1627 39.5667 35.1649 39.6073 36.1603 39.6988C41.0693 40.1529 45.7745 41.4133 50.2589 43.4396C53.0854 44.7171 55.725 46.2995 58.2322 48.7256V48.729ZM61.6702 75.6669C62.4991 76.3141 63.0971 77.1104 63.2805 78.1778C63.464 79.2485 63.3688 80.2989 63.0971 81.3392C62.2953 84.4362 60.5355 86.9199 58.2628 89.1325C55.8711 91.457 53.082 93.1444 50.0822 94.51C47.0485 95.8925 43.906 97.0106 40.6345 97.6917C38.552 98.1254 36.4559 98.5558 34.2952 98.3253C33.7415 98.2677 33.5886 98.0882 33.7211 97.5189C34.2307 95.2995 35.2261 93.2664 36.1297 91.1995C36.3506 90.6946 36.6291 90.2101 36.8839 89.7187C37.0674 89.3596 37.3052 89.2511 37.6891 89.4849C38.1069 89.7391 38.5927 89.8475 39.0548 90C40.4442 90.4608 41.8813 90.5421 43.3285 90.576C43.4746 90.5794 43.6648 90.532 43.7396 90.7082C43.8007 90.8539 43.658 90.9487 43.5663 91.0368C42.1089 92.4735 40.8859 94.222 38.6947 94.6828C38.5316 94.7167 38.3142 94.7641 38.3176 94.9911C38.321 95.2148 38.5452 95.2487 38.7015 95.3029C39.6425 95.6146 40.6243 95.7027 41.5959 95.6587C43.1926 95.5841 44.5685 95.0589 45.4891 93.612C46.0701 92.6972 46.5865 91.7552 47.0247 90.7692C47.3305 90.0847 47.8672 89.5222 48.5603 89.2376C51.0233 88.2312 53.1363 86.7912 54.7161 84.5887C56.1803 82.5488 57.4237 80.4243 57.8177 77.9101C57.9706 76.9274 57.9808 75.9245 58.0623 74.9317C58.1269 74.1252 58.256 74.027 59.0713 74.1557C60.1279 74.3217 60.9738 74.8639 61.6668 75.6602L61.6702 75.6669ZM43.1484 57.7659C42.469 57.1831 41.5653 56.1733 40.6549 55.1771C39.2824 53.6795 38.2326 51.9649 37.2712 50.1894C37.0368 49.7523 37.1251 49.549 37.5736 49.2677C39.262 48.2139 41.1033 48.0547 43.016 48.1224C43.6071 48.1428 43.9264 48.3969 44.1982 48.8984C45.2242 50.7925 45.9648 52.8154 46.8922 54.7502C48.0065 57.0679 49.1038 59.4262 51.3528 60.9137C52.8951 61.9337 54.3695 63.1298 56.2992 63.3873C56.7136 63.4415 56.8291 63.6787 56.7272 64.0379C56.5472 64.6783 56.3501 65.3119 56.1531 65.9455C56.0818 66.176 55.9662 66.2437 55.7081 66.1319C54.8146 65.7389 53.8939 65.4136 53.0106 65.0002C49.3926 63.3026 46.3385 60.8256 43.1484 57.7659ZM44.6432 78.9164C45.462 77.9541 46.6204 77.0223 47.7347 76.0363C49.8546 74.1557 52.1579 72.5699 54.7874 71.4789C56.0716 70.9469 56.3705 71.0858 56.7816 72.4242C56.8529 72.6546 56.8529 72.9054 56.9039 73.1426C56.9922 73.5729 56.8393 73.7965 56.3977 73.8982C53.3368 74.5962 51.2237 76.6462 49.396 78.9978C47.9182 80.9021 47.0553 83.1588 46.2671 85.4222C45.8459 86.6353 45.3736 87.8314 44.8403 89.0004C44.7078 89.2918 44.5753 89.5663 44.1982 89.59C42.1463 89.7289 40.1623 89.5256 38.3278 88.4921C37.8725 88.2346 37.774 87.9805 38.0458 87.4858C39.7682 84.3549 41.9934 81.6136 44.6432 78.9131V78.9164ZM52.4161 52.0022C53.2518 52.8933 54.1827 54.0217 54.8995 55.3059C56.0104 57.3017 56.8122 59.3957 56.9582 61.7032C57.0296 62.8282 56.7952 62.9807 55.7658 62.5842C54.7568 62.198 53.8362 61.6592 52.9937 61.0154C51.1591 59.616 49.5489 58.02 48.7947 55.7396C48.1458 53.7777 47.8978 51.7176 47.2149 49.7658C47.147 49.5727 46.9873 49.3185 47.1878 49.1457C47.3712 48.9831 47.6124 49.139 47.8197 49.2C49.5047 49.7218 50.9655 50.6197 52.4161 51.9988V52.0022ZM51.9099 77.6593C53.3809 76.1447 54.6617 74.9554 56.4351 74.481C57.0704 74.3116 57.2402 74.4098 57.196 75.0367C56.7612 81.0952 54.271 85.8119 48.438 88.3397C48.3055 88.3973 48.1696 88.5735 48.0269 88.4311C47.9046 88.3126 48.0099 88.1363 48.0405 87.9906C48.2647 86.8623 48.4889 85.7306 48.7233 84.6022C49.2839 81.9288 50.0347 79.3434 51.9133 77.6593H51.9099Z" fill="#F9F4E1"/>
<path d="M67.5846 70.381C68.6208 70.7131 69.6399 71.0858 70.6115 71.5602C72.6499 72.5564 74.1956 73.9965 74.729 76.304C74.763 76.4599 74.7868 76.6327 74.9736 76.6564C75.1707 76.6801 75.1978 76.4836 75.2828 76.3616C75.6565 75.8127 76.0302 75.2637 76.4208 74.7284C76.6009 74.4844 76.6994 74.2303 76.696 73.9287C76.6892 73.5526 76.6824 73.1765 76.6858 72.797C76.696 71.9804 76.8183 71.8719 77.6404 71.75C80.4568 71.3298 83.1372 70.5132 85.556 68.9681C85.9671 68.7071 86.351 68.4022 86.7451 68.1142C87.0882 67.8634 87.095 67.6601 86.7043 67.4229C84.119 65.8439 81.3502 64.8647 78.2995 64.7257C76.6451 64.6512 76.6213 64.6444 76.4039 63.018C76.2748 62.0658 75.9826 61.2187 75.2794 60.5309C74.5897 59.8566 74.515 59.8464 74.2432 60.7477C73.9205 61.8185 73.3293 62.6859 72.5684 63.4957C71.4711 64.6614 69.9763 65.068 68.614 65.7355C68.3014 65.888 67.6729 65.827 67.7579 66.2743C67.8394 66.7114 68.4033 66.4945 68.7567 66.4843C70.9377 66.42 73.1085 66.6199 75.276 66.7825C75.986 66.8367 76.6824 67.0197 77.2905 67.4195C78.1025 67.9515 78.0923 68.4598 77.2769 68.9579C76.7164 69.3001 76.0913 69.4526 75.4628 69.5915C73.2342 70.0829 70.9649 70.0828 68.6989 70.1235C68.332 70.1303 67.9617 70.1608 67.5948 70.1811C67.5914 70.2489 67.588 70.3133 67.5846 70.381Z" fill="#F9F4E1"/>
<path d="M49.0322 67.2094C48.4207 66.8062 47.8398 66.8773 47.3166 66.7316C45.207 66.1352 44.0111 64.6952 43.3962 62.6689C43.3113 62.3876 43.3317 61.9302 42.9987 61.8862C42.6183 61.8387 42.5435 62.3063 42.377 62.5774C42.1121 63.0111 41.8709 63.4618 41.6432 63.9158C41.5074 64.1903 41.3817 64.4817 41.436 64.807C41.5753 65.6134 41.4054 65.8506 40.5833 65.9828C39.8393 66.1014 39.0919 66.2098 38.3479 66.3284C36.3266 66.6469 34.3664 67.2365 32.4129 67.8159C31.7029 68.026 31.054 68.4631 30.3984 68.8324C30.0077 69.0527 30.2251 69.2424 30.4901 69.4051C31.635 70.1099 32.8885 70.5809 34.1863 70.879C36.4319 71.3941 38.6808 71.9667 41.0215 71.8414C41.5175 71.8143 41.684 72.1124 41.6364 72.5021C41.4938 73.6576 42.2038 74.4606 42.7541 75.3314C42.8629 75.5009 43.0123 75.6669 43.2332 75.6466C43.4981 75.6262 43.4778 75.3687 43.5321 75.1891C44.2761 72.7257 45.8456 71.1637 48.4309 70.6825C48.6348 70.6452 49.0458 70.73 48.9949 70.3979C48.9541 70.1404 48.5702 70.2454 48.3392 70.259C46.8988 70.3403 45.4583 70.4114 44.0145 70.3166C43.121 70.259 42.248 70.1234 41.419 69.7846C41.0317 69.6253 40.7056 69.4017 40.6682 68.9409C40.6275 68.4462 41.0351 68.314 41.3681 68.1649C42.0407 67.8701 42.7372 67.6838 43.4846 67.6295C45.1866 67.5042 46.8852 67.2873 48.6008 67.3415C48.6993 67.3415 48.8012 67.2839 49.0356 67.2094H49.0322Z" fill="#F9F4E1"/>
</g>
<defs>
<clipPath id="clip0_702_574">
<rect width="87" height="139" fill="white" transform="matrix(-1 0 0 1 87 0)"/>
</clipPath>
</defs>
</svg>
