<svg width="87" height="139" viewBox="0 0 87 139" fill="none" xmlns="http://www.w3.org/2000/svg">
<g clip-path="url(#clip0_702_570)">
<path d="M60.1209 111.35C60.4573 111.056 60.7562 111.232 61.0348 111.32C62.9543 111.933 64.6936 112.916 66.3787 113.993C68.9164 115.61 71.2096 117.545 73.2581 119.73C75.5376 122.163 77.4775 124.86 79.2338 127.696C80.1681 129.204 81.0955 130.712 81.8769 132.304C81.9924 132.542 82.1215 132.833 82.4171 132.833C82.7364 132.833 82.8927 132.538 83.0218 132.281C83.9866 130.336 83.8813 128.32 83.3411 126.31C82.5496 123.359 80.997 120.852 78.8669 118.649C75.0348 114.681 70.5063 111.842 65.3561 109.9C62.9169 108.982 60.4097 108.311 57.9229 107.569C56.6761 107.196 56.5097 107.291 56.5776 108.538C56.7305 111.239 56.5946 113.949 56.9445 116.636C57.3046 119.374 58.7756 121.438 60.9906 123.017C61.5512 123.417 62.217 123.508 62.8795 123.61C63.0664 123.637 63.3381 123.617 63.3823 123.85C63.4299 124.101 63.1479 124.138 62.9848 124.226C60.0768 125.778 57.4066 124.999 55.572 122.088C54.6922 120.696 54.4238 119.184 54.5699 117.568C54.6276 116.928 54.6684 116.284 54.6616 115.644C54.6548 115.105 54.4136 114.996 54.0059 115.356C53.4657 115.827 52.878 116.206 52.2292 116.504C50.3946 117.341 48.217 117.087 46.6067 115.877C44.3917 114.217 43.06 111.882 41.3648 109.826C40.4713 108.745 39.4657 107.776 38.4805 106.783C38.1476 106.447 37.6652 106.339 37.2541 106.126C37.0197 106.004 36.7173 105.848 36.7649 105.563C36.8091 105.299 37.1454 105.289 37.3798 105.258C39.7341 104.926 41.6603 105.702 43.1517 107.542C43.4711 107.938 43.7666 108.355 44.0588 108.772C44.3034 109.117 44.5684 109.199 44.8605 108.843C45.5706 107.976 46.5456 108.077 47.5036 108.115C47.6633 108.121 47.8297 108.152 47.9011 108.311C47.9928 108.511 47.8467 108.65 47.721 108.772C47.2658 109.206 46.8989 109.7 46.6203 110.263C46.0632 111.381 46.1923 112.486 47.0212 113.404C47.6463 114.092 48.2578 114.8 49.0425 115.325C50.2452 116.128 51.5973 116.037 52.7455 115.145C55.1202 113.302 55.9152 110.876 55.5551 107.965C55.4599 107.21 55.2289 106.844 54.4204 106.647C51.2304 105.875 48.0302 105.106 44.9149 104.062C39.0852 102.11 33.4492 99.7485 28.3873 96.1872C26.0908 94.5744 24.0015 92.7344 22.082 90.6946C20.4411 88.9496 19.0924 86.9911 18.1378 84.8157C17.5535 83.484 17.3497 82.0067 17.4142 80.5192C17.4244 80.3226 17.5807 80.0346 17.2851 79.9364C17.0439 79.855 16.8876 80.0888 16.7314 80.2413C16.1708 80.7801 15.6307 81.3188 14.8493 81.5662C13.2866 82.0643 12.1485 81.2138 11.6423 79.7907C11.5098 79.4145 11.6831 79.2756 12.0194 79.3197C13.3103 79.4925 14.2344 78.8114 15.0837 78.0016C16.9658 76.2125 18.8105 74.3827 20.7095 72.6106C23.2711 70.2217 26.2504 69.256 29.7224 70.1336C29.9806 70.198 30.2048 70.1811 30.4189 70.0388C30.5649 69.9405 30.7416 69.8524 30.8367 69.7135C31.1493 69.2662 31.9374 69.0629 31.7676 68.3886C31.5603 67.572 30.5106 67.0163 29.5865 67.1518C28.2276 67.3484 26.8755 67.3314 25.5438 67.0332C23.6855 66.6131 22.1805 65.5491 20.8522 64.248C19.4729 62.896 18.1106 61.527 16.8944 60.0226C16.1776 59.1382 15.2875 58.43 14.4348 57.688C13.9388 57.2542 13.3579 56.8917 12.6309 56.9425C12.3217 56.9628 12.2538 56.8002 12.2878 56.5257C12.4033 55.6109 13.1303 54.9637 14.0679 54.9738C15.2875 54.9874 16.2999 55.4855 17.1594 56.3258C17.3123 56.4749 17.4516 56.7324 17.6962 56.6579C17.9612 56.5766 17.8898 56.2818 17.9034 56.0785C18.1786 52.2631 20.183 49.3287 22.6256 46.5604C24.4567 44.4833 26.6547 42.8602 28.9275 41.3829C31.3735 39.7937 33.9418 38.3705 36.6494 37.2185C41.6094 35.1109 46.6509 33.2947 51.9812 32.3662C53.5541 32.0918 55.076 31.5429 56.6728 31.3734C57.0057 31.3362 57.0396 31.1058 57.0464 30.8482C57.0804 29.5844 57.1008 28.3205 56.9649 27.0634C56.7543 25.1286 55.5517 23.78 54.0637 22.716C52.8916 21.8791 51.2949 22.14 50.0515 23.1734C49.6778 23.4852 49.3177 23.824 49.0052 24.1968C47.755 25.6809 47.772 26.9854 49.0222 28.7203C49.1954 28.9609 49.5419 29.1913 49.3415 29.52C49.1682 29.8046 48.7809 29.7436 48.4786 29.7436C47.6667 29.7436 46.9464 29.4929 46.4199 28.8355C46.0937 28.4255 45.8457 28.4357 45.5774 28.9067C44.8334 30.2248 43.736 31.143 42.3704 31.797C41.1338 32.39 39.8496 32.1934 38.5722 32.1629C38.3922 32.1596 38.2019 32.0816 38.1782 31.8682C38.1544 31.6547 38.3344 31.5666 38.5009 31.4954C41.2595 30.3264 43.2231 28.2629 44.9183 25.8774C46.216 24.0544 47.7991 22.5296 49.7695 21.4081C50.8465 20.7948 51.9268 20.7778 53.0411 21.1302C54.1044 21.4691 55.0862 21.9875 55.9525 22.7058C56.0782 22.8109 56.2005 23.0142 56.401 22.899C56.615 22.777 56.5301 22.4992 56.5471 22.3162C56.5878 21.9231 56.6048 21.5301 56.5403 21.1404C56.1598 18.843 57.0634 17.0573 58.531 15.4749C59.5094 14.4211 60.6339 13.6486 62.1049 13.4588C63.3246 13.303 64.3743 13.7231 65.3731 14.3568C65.5056 14.4415 65.6449 14.533 65.5973 14.7227C65.5565 14.882 65.4105 14.8854 65.278 14.9057C61.9894 15.353 60.2059 17.4978 59.1731 20.4051C58.4427 22.4585 58.5039 24.6406 58.3408 26.7821C58.2593 27.863 58.0248 28.9338 58.0588 30.0248C58.0826 30.8211 58.2083 30.9329 58.9863 30.7635C62.9407 29.9096 66.8713 28.971 70.5845 27.3073C73.4925 26.0028 76.1627 24.3357 78.6971 22.3941C81.3843 20.3373 83.5517 17.9316 84.9072 14.8311C85.6512 13.1335 86.154 11.3716 86.1744 9.50115C86.188 8.34231 85.6342 7.36644 85.1315 6.38041C84.9412 6.00768 84.8019 6.28215 84.6626 6.45834C83.9628 7.35289 83.46 8.36942 82.8383 9.31479C80.2055 13.3233 77.4367 17.2234 73.822 20.4424C70.6932 23.2277 67.211 25.4335 63.2328 26.8194C62.9101 26.9312 62.584 27.0905 62.1729 27.0091C62.268 26.694 62.5092 26.6432 62.7232 26.5687C65.7536 25.4945 68.3525 23.7359 70.88 21.7673C73.4857 19.7376 75.6497 17.325 77.6745 14.7769C79.971 11.89 81.8225 8.70826 83.3139 5.32322C83.5517 4.78107 83.4124 4.44562 83.0523 4.02884C80.3413 0.901326 75.2183 0.847111 71.8754 4.55405C70.8732 5.66884 70.2108 7.03776 69.8337 8.48801C69.6264 9.27751 69.2969 10.006 68.5937 10.5346C68.1418 10.8769 67.7274 10.9175 67.2586 10.5821C66.5485 10.0738 66.1646 8.91156 66.3855 8.03396C66.7388 6.64132 67.5066 5.46892 68.4136 4.40496C71.1994 1.14529 74.7223 -0.403218 79.0334 0.108434C80.8781 0.328682 82.3831 1.36554 83.8133 2.47017C84.3569 2.89033 84.7102 3.17835 85.2028 3.85264C85.6478 4.46256 85.7362 4.70653 85.889 5.01826C87.5129 8.3457 87.2208 11.6359 85.8313 14.9768C84.503 18.1687 82.254 20.5813 79.7061 22.8007C78.1909 24.1188 76.55 25.2539 74.7868 26.1891C70.846 28.2832 66.698 29.8351 62.2952 30.6686C61.1197 30.8923 59.9749 31.2684 58.8096 31.553C58.2049 31.7021 57.8482 32.0139 57.7497 32.661C57.5832 33.7589 57.1654 34.7957 56.8528 35.8563C56.6218 36.6492 56.7713 36.8254 57.5934 36.7746C59.7812 36.6323 61.8909 36.0766 63.987 35.4938C67.9516 34.3993 71.7225 32.8237 75.0892 30.4484C77.2125 28.9473 79.1795 27.2396 80.2938 24.7863C80.3481 24.6677 80.3889 24.5051 80.5554 24.5458C80.7014 24.583 80.6743 24.7626 80.7252 24.8812C82.0739 27.9477 80.8441 30.3874 78.8092 32.6136C77.4571 34.0943 75.8162 35.0499 73.8322 35.5141C71.2163 36.124 68.5767 36.656 66.022 37.5099C65.7128 37.6149 65.3799 37.6624 65.0198 38.0046C65.8181 38.0554 66.5146 38.0351 67.1974 38.1469C68.6141 38.3739 69.888 38.8686 70.8257 40.0512C70.897 40.1393 70.9582 40.2342 71.0091 40.3358C71.196 40.6916 71.3658 41.1152 71.1484 41.4608C70.9174 41.8267 70.4893 41.5692 70.1632 41.5014C66.5281 40.7831 62.8693 40.2816 59.1629 40.1088C58.3068 40.0681 57.4575 39.9665 56.6082 39.8648C56.0545 39.7971 55.7215 39.997 55.5551 40.529C54.6412 43.4227 53.0989 46.025 51.7467 48.7154C51.5769 49.0509 51.6652 49.2169 51.9166 49.4405C53.3468 50.6909 54.135 52.2902 54.4442 54.1471C54.6038 55.1128 54.3185 55.9463 53.7375 56.6918C53.3502 57.1899 52.8576 57.3491 52.2665 57.0442C51.6958 56.7528 51.5599 56.2784 51.7298 55.699C51.8962 55.1263 52.0763 54.5537 52.2767 53.9912C52.664 52.9001 52.1102 51.2635 51.142 50.6333C50.7819 50.3995 50.6019 50.6299 50.449 50.884C49.423 52.629 48.1728 54.2114 46.9091 55.7837C45.0678 58.0776 42.9547 60.0836 40.6038 61.8591C38.9357 63.1196 37.2099 64.2717 35.3856 65.2882C34.431 65.8202 33.439 66.2505 32.4062 66.6063C32.1005 66.7113 31.5875 66.7588 31.7132 67.2399C31.8253 67.6669 32.2534 67.8905 32.7086 67.8668C33.1502 67.8431 33.5851 67.7245 34.0233 67.6567C34.944 67.5144 35.7899 67.6262 36.4693 68.3513C36.8872 68.7952 36.8634 68.9951 36.364 69.3374C35.2769 70.0794 34.1864 69.9134 33.0789 69.395C32.5455 69.1476 31.8287 69.4661 31.6554 70.0151C31.5298 70.4115 31.8797 70.442 32.1073 70.5335C33.5749 71.1298 34.9406 71.899 36.2587 72.7766C39.7545 75.1045 42.8324 77.9067 45.6045 81.041C47.0314 82.6539 48.1898 84.4735 49.3415 86.2897C49.3517 86.31 49.3653 86.3269 49.3755 86.3473C50.15 87.6044 50.5067 87.6145 51.3391 86.3574C51.7739 85.7035 51.9506 84.9885 51.672 84.2058C51.4648 83.623 51.2439 83.0368 51.1047 82.4336C50.9178 81.617 51.1998 81.0816 51.8181 80.8614C52.2733 80.6988 52.63 80.7801 52.946 81.1562C54.0942 82.5285 53.9074 84.0533 53.3604 85.5544C52.9392 86.7132 52.1714 87.6823 51.2236 88.4786C50.7717 88.8615 50.7955 89.2376 51.0571 89.7018C52.4058 92.0839 53.4114 94.615 54.2743 97.2004C54.6276 98.2542 54.6514 98.3118 55.7521 98.3118C60.318 98.3016 64.8533 97.9323 69.3513 97.1563C70.0069 97.0445 70.1122 97.1462 69.9594 97.7968C69.7589 98.6405 69.2765 99.2606 68.5053 99.6807C67.5439 100.206 66.5214 100.443 65.4376 100.457C65.0368 100.46 64.6359 100.463 64.2384 100.48C64.1637 100.484 64.0516 100.538 64.0244 100.599C63.9598 100.735 64.0889 100.792 64.1875 100.829C64.748 101.039 65.295 101.314 65.8759 101.439C67.921 101.876 69.939 102.429 71.906 103.12C74.4573 104.015 76.8863 105.139 78.4287 107.562C79.6177 109.433 80.1851 111.374 79.4411 113.553C79.3901 113.699 79.3324 113.844 79.2542 113.976C79.0334 114.342 78.8669 114.427 78.5374 114.004C76.7572 111.727 74.848 109.538 72.5039 107.843C69.8167 105.898 66.7863 104.54 63.6745 103.377C61.5852 102.598 59.4109 102.127 57.2469 101.632C57.1178 101.602 56.9853 101.575 56.8562 101.555C55.1848 101.287 55.4362 101.612 56.0511 104.12C56.1496 104.519 56.1971 104.929 56.2481 105.339C56.333 106.058 56.6965 106.454 57.3352 106.664C59.574 107.396 61.7856 108.206 64.0448 108.863C69.0421 110.314 73.608 112.594 77.5522 115.969C80.7762 118.724 83.2834 122.065 84.3433 126.246C85.0261 128.94 84.7815 131.627 83.4464 134.127C83.4362 134.144 83.426 134.165 83.4158 134.182C83.0184 134.927 82.4816 135.588 81.8361 136.133C81.5983 136.333 81.4149 136.489 81.1805 136.689C78.004 139.383 74.4777 139.576 70.7509 138.082C67.5541 136.801 65.3289 134.541 64.1501 131.295C63.8885 130.576 63.8545 129.821 63.9564 129.062C64.0482 128.391 64.4422 127.961 65.0639 127.781C65.6449 127.615 66.168 127.835 66.5723 128.262C67.16 128.879 67.4352 129.655 67.5609 130.475C67.8327 132.237 68.5971 133.69 70.0307 134.802C70.6592 135.29 71.2028 135.879 71.8822 136.313C74.7835 138.16 78.286 137.529 80.732 135.005C81.0276 134.7 81.0004 134.388 80.8917 134.026C80.5214 132.782 79.8929 131.654 79.2814 130.526C76.9679 126.27 74.4165 122.17 70.9344 118.741C68.7533 116.592 66.5044 114.522 63.7934 113.021C62.798 112.469 61.7448 112.062 60.6849 111.669C60.5014 111.601 60.2942 111.581 60.1209 111.361V111.35ZM26.2504 87.9398C25.7578 87.5129 25.1633 86.5506 24.5484 85.5984C23.2405 83.5688 22.5169 81.3832 22.6188 78.9469C22.7513 75.7686 25.34 73.3628 28.5402 73.4882C29.0701 73.5085 29.3215 73.312 29.4031 72.8071C29.4778 72.3497 29.5695 71.8956 29.8685 71.5093C30.1844 71.0993 30.0078 70.896 29.5424 70.7876C28.6625 70.5843 27.7758 70.5572 26.8925 70.6521C24.3038 70.9231 22.3436 72.2955 20.7299 74.237C19.6564 75.528 19.0483 77.0325 19.0517 78.6962C19.0517 81.3053 19.6496 83.8127 20.9439 86.0931C22.7377 89.2545 25.1905 91.8975 28.0102 94.1542C31.2953 96.7836 34.9678 98.8167 38.8134 100.521C41.572 101.744 44.3713 102.866 47.2522 103.794C49.7288 104.594 52.2088 105.35 54.7703 105.821C55.2629 105.912 55.426 105.793 55.161 105.034C54.8246 104.069 54.6106 103.066 54.5359 102.046C54.4883 101.416 54.2267 101.09 53.6798 100.945C51.7909 100.443 49.8952 99.9755 48.0098 99.4571C43.094 98.0983 38.3005 96.4583 33.8908 93.8357C31.2478 92.2635 28.812 90.4303 26.2538 87.9432L26.2504 87.9398ZM26.0058 45.4693C25.1463 46.313 24.382 47.0178 23.7161 47.831C21.7763 50.2063 20.3766 52.8425 19.6938 55.8345C19.3201 57.4677 19.354 59.0874 19.9282 60.6799C20.4683 62.1708 21.5283 63.2687 22.6562 64.3123C24.5994 66.1048 26.9231 66.6673 29.505 66.3725C30.0384 66.3115 30.2456 66.098 29.95 65.5932C29.7326 65.2204 29.6205 64.8206 29.5763 64.397C29.5186 63.8583 29.3181 63.5838 28.6863 63.6211C25.8224 63.7939 22.7683 60.9307 22.9517 57.7185C23.0944 55.228 24.015 53.0695 25.4215 51.0941C26.7057 49.2914 28.4077 47.8954 30.1471 46.54C32.3994 44.7848 34.8285 43.3278 37.4036 42.1114C40.5664 40.6137 43.9127 39.631 47.2828 38.7297C49.8171 38.052 52.4262 37.7166 54.9843 37.1473C55.3784 37.0592 55.7147 36.9372 55.854 36.5306C56.2413 35.4192 56.6184 34.3078 56.6456 33.1117C56.6558 32.6238 56.2583 32.2748 55.7725 32.3391C55.0862 32.4272 54.4 32.5526 53.7239 32.7186C47.8909 34.1418 42.1359 35.7953 36.7004 38.4112C32.7596 40.3087 28.9886 42.44 26.0024 45.4659L26.0058 45.4693ZM28.7678 48.729C26.8925 50.4333 25.3672 52.7985 24.3955 55.5126C23.7501 57.3186 23.7467 59.1111 24.9901 60.6901C25.9413 61.8998 26.974 63.0518 28.744 62.9841C29.1619 62.9671 29.3114 62.8722 29.3181 62.4148C29.3521 59.5821 30.0791 56.9628 31.6588 54.5706C33.3269 52.0462 35.2022 49.6743 38.1476 48.7086C39.9923 48.1055 40.9537 46.9771 41.6841 45.3676C42.0204 44.629 42.4315 43.8937 43.0974 43.3786C45.0644 41.8606 47.242 42.0673 49.457 42.64C49.6031 42.6772 49.7695 42.7484 49.7526 42.9483C49.7356 43.1584 49.5555 43.1516 49.4026 43.1787C47.2556 43.5514 45.737 44.8729 44.4325 46.496C43.9942 47.0415 44.0758 47.1703 44.7858 47.2245C46.0258 47.316 47.2692 47.3939 48.465 47.7904C49.0765 47.9903 49.6438 48.302 50.2825 48.4308C50.7242 48.5189 51.0129 48.4308 51.21 48.0208C51.5191 47.3838 51.8453 46.7535 52.1578 46.1165C53.0479 44.3071 53.955 42.501 54.4849 40.5425C54.6684 39.8682 54.5393 39.7124 53.836 39.6514C52.8373 39.5667 51.8351 39.6073 50.8397 39.6988C45.9307 40.1529 41.2255 41.4133 36.7411 43.4396C33.9146 44.7171 31.275 46.2995 28.7678 48.7256V48.729ZM25.3298 75.6669C24.5009 76.3141 23.9029 77.1104 23.7195 78.1778C23.536 79.2485 23.6312 80.2989 23.9029 81.3392C24.7047 84.4362 26.4645 86.9199 28.7372 89.1325C31.1289 91.457 33.918 93.1444 36.9178 94.51C39.9515 95.8925 43.094 97.0106 46.3655 97.6917C48.448 98.1254 50.5441 98.5558 52.7048 98.3253C53.2585 98.2677 53.4114 98.0882 53.2789 97.5189C52.7693 95.2995 51.7739 93.2664 50.8703 91.1995C50.6494 90.6946 50.3709 90.2101 50.1161 89.7187C49.9326 89.3596 49.6948 89.2511 49.3109 89.4849C48.8931 89.7391 48.4073 89.8475 47.9452 90C46.5558 90.4608 45.1187 90.5421 43.6715 90.576C43.5254 90.5794 43.3352 90.532 43.2604 90.7082C43.1993 90.8539 43.342 90.9487 43.4337 91.0368C44.8911 92.4735 46.1141 94.222 48.3053 94.6828C48.4684 94.7167 48.6858 94.7641 48.6824 94.9911C48.679 95.2148 48.4548 95.2487 48.2985 95.3029C47.3575 95.6146 46.3757 95.7027 45.4041 95.6587C43.8074 95.5841 42.4315 95.0589 41.5109 93.612C40.9299 92.6972 40.4135 91.7552 39.9753 90.7692C39.6695 90.0847 39.1328 89.5222 38.4397 89.2376C35.9767 88.2312 33.8637 86.7912 32.2839 84.5887C30.8197 82.5488 29.5763 80.4243 29.1823 77.9101C29.0294 76.9274 29.0192 75.9245 28.9377 74.9317C28.8731 74.1252 28.744 74.027 27.9287 74.1557C26.8721 74.3217 26.0262 74.8639 25.3332 75.6602L25.3298 75.6669ZM43.8516 57.7659C44.531 57.1831 45.4347 56.1733 46.3451 55.1771C47.7176 53.6795 48.7674 51.9649 49.7288 50.1894C49.9632 49.7523 49.8749 49.549 49.4264 49.2677C47.738 48.2139 45.8967 48.0547 43.984 48.1224C43.3929 48.1428 43.0736 48.3969 42.8018 48.8984C41.7758 50.7925 41.0352 52.8154 40.1078 54.7502C38.9935 57.0679 37.8962 59.4262 35.6472 60.9137C34.1049 61.9337 32.6305 63.1298 30.7008 63.3873C30.2864 63.4415 30.1709 63.6787 30.2728 64.0379C30.4528 64.6783 30.6499 65.3119 30.8469 65.9455C30.9182 66.176 31.0338 66.2437 31.2919 66.1319C32.1854 65.7389 33.1061 65.4136 33.9894 65.0002C37.6074 63.3026 40.6615 60.8256 43.8516 57.7659ZM42.3568 78.9164C41.538 77.9541 40.3796 77.0223 39.2653 76.0363C37.1454 74.1557 34.8421 72.5699 32.2126 71.4789C30.9284 70.9469 30.6295 71.0858 30.2184 72.4242C30.1471 72.6546 30.1471 72.9054 30.0961 73.1426C30.0078 73.5729 30.1607 73.7965 30.6023 73.8982C33.6632 74.5962 35.7763 76.6462 37.604 78.9978C39.0818 80.9021 39.9447 83.1588 40.7329 85.4222C41.1541 86.6353 41.6264 87.8314 42.1597 89.0004C42.2922 89.2918 42.4247 89.5663 42.8018 89.59C44.8537 89.7289 46.8377 89.5256 48.6722 88.4921C49.1275 88.2346 49.226 87.9805 48.9542 87.4858C47.2318 84.3549 45.0066 81.6136 42.3568 78.9131V78.9164ZM34.5839 52.0022C33.7482 52.8933 32.8173 54.0217 32.1005 55.3059C30.9896 57.3017 30.1878 59.3957 30.0418 61.7032C29.9704 62.8282 30.2048 62.9807 31.2342 62.5842C32.2432 62.198 33.1638 61.6592 34.0063 61.0154C35.8409 59.616 37.4511 58.02 38.2053 55.7396C38.8542 53.7777 39.1022 51.7176 39.7851 49.7658C39.853 49.5727 40.0127 49.3185 39.8122 49.1457C39.6288 48.9831 39.3876 49.139 39.1803 49.2C37.4953 49.7218 36.0345 50.6197 34.5839 51.9988V52.0022ZM35.0901 77.6593C33.6191 76.1447 32.3383 74.9554 30.5649 74.481C29.9296 74.3116 29.7598 74.4098 29.804 75.0367C30.2388 81.0952 32.729 85.8119 38.562 88.3397C38.6945 88.3973 38.8304 88.5735 38.9731 88.4311C39.0954 88.3126 38.9901 88.1363 38.9595 87.9906C38.7353 86.8623 38.5111 85.7306 38.2767 84.6022C37.7161 81.9288 36.9653 79.3434 35.0867 77.6593H35.0901Z" fill="#F9F4E1"/>
<path d="M19.4154 70.381C18.3792 70.7131 17.3601 71.0858 16.3885 71.5602C14.3501 72.5564 12.8044 73.9965 12.271 76.304C12.237 76.4599 12.2132 76.6327 12.0264 76.6564C11.8293 76.6801 11.8022 76.4836 11.7172 76.3616C11.3435 75.8127 10.9698 75.2637 10.5792 74.7284C10.3991 74.4844 10.3006 74.2303 10.304 73.9287C10.3108 73.5526 10.3176 73.1765 10.3142 72.797C10.304 71.9804 10.1817 71.8719 9.35955 71.75C6.54324 71.3298 3.86281 70.5132 1.44398 68.9681C1.03291 68.7071 0.649021 68.4022 0.254941 68.1142C-0.0881808 67.8634 -0.0949753 67.6601 0.295708 67.4229C2.88101 65.8439 5.64976 64.8647 8.70049 64.7257C10.3549 64.6512 10.3787 64.6444 10.5961 63.018C10.7252 62.0658 11.0174 61.2187 11.7206 60.5309C12.4103 59.8566 12.485 59.8464 12.7568 60.7477C13.0795 61.8185 13.6707 62.6859 14.4316 63.4957C15.5289 64.6614 17.0237 65.068 18.386 65.7355C18.6986 65.888 19.3271 65.827 19.2421 66.2743C19.1606 66.7114 18.5967 66.4945 18.2433 66.4843C16.0623 66.42 13.8915 66.6199 11.724 66.7825C11.014 66.8367 10.3176 67.0197 9.70947 67.4195C8.89753 67.9515 8.90772 68.4598 9.72306 68.9579C10.2836 69.3001 10.9087 69.4526 11.5372 69.5915C13.7658 70.0829 16.0351 70.0828 18.3011 70.1235C18.668 70.1303 19.0383 70.1608 19.4052 70.1811C19.4086 70.2489 19.412 70.3133 19.4154 70.381Z" fill="#F9F4E1"/>
<path d="M37.9678 67.2094C38.5793 66.8062 39.1602 66.8773 39.6834 66.7316C41.793 66.1352 42.9889 64.6952 43.6038 62.6689C43.6887 62.3876 43.6683 61.9302 44.0013 61.8862C44.3817 61.8387 44.4565 62.3063 44.623 62.5774C44.8879 63.0111 45.1291 63.4618 45.3568 63.9158C45.4926 64.1903 45.6183 64.4817 45.564 64.807C45.4247 65.6134 45.5946 65.8506 46.4167 65.9828C47.1607 66.1014 47.9081 66.2098 48.6521 66.3284C50.6734 66.6469 52.6336 67.2365 54.5871 67.8159C55.2971 68.026 55.946 68.4631 56.6016 68.8324C56.9923 69.0527 56.7749 69.2424 56.5099 69.4051C55.365 70.1099 54.1115 70.5809 52.8137 70.879C50.5681 71.3941 48.3192 71.9667 45.9785 71.8414C45.4825 71.8143 45.316 72.1124 45.3636 72.5021C45.5062 73.6576 44.7962 74.4606 44.2459 75.3314C44.1371 75.5009 43.9877 75.6669 43.7668 75.6466C43.5019 75.6262 43.5222 75.3687 43.4679 75.1891C42.7239 72.7257 41.1544 71.1637 38.5691 70.6825C38.3652 70.6452 37.9542 70.73 38.0051 70.3979C38.0459 70.1404 38.4298 70.2454 38.6608 70.259C40.1012 70.3403 41.5417 70.4114 42.9855 70.3166C43.879 70.259 44.752 70.1234 45.581 69.7846C45.9683 69.6253 46.2944 69.4017 46.3318 68.9409C46.3725 68.4462 45.9649 68.314 45.6319 68.1649C44.9593 67.8701 44.2628 67.6838 43.5154 67.6295C41.8134 67.5042 40.1148 67.2873 38.3992 67.3415C38.3007 67.3415 38.1988 67.2839 37.9644 67.2094H37.9678Z" fill="#F9F4E1"/>
</g>
<defs>
<clipPath id="clip0_702_570">
<rect width="87" height="139" fill="white"/>
</clipPath>
</defs>
</svg>
