<svg width="75" height="51" viewBox="0 0 75 51" fill="none" xmlns="http://www.w3.org/2000/svg">
<g clip-path="url(#clip0_117_344)">
<path d="M10.9949 26.4904C10.9949 27.8858 11.0086 29.283 10.9863 30.6784C10.9794 31.1178 11.0909 31.3101 11.5695 31.2981C12.3911 31.2775 12.3911 31.3032 12.4597 32.1133C12.88 37.0995 13.2985 42.0857 13.7188 47.0701C13.7771 47.7653 13.8388 48.4587 13.904 49.1538C13.9418 49.5675 13.7548 49.6791 13.3706 49.5984C11.2213 49.1487 9.07029 48.7007 6.91586 48.2647C6.54879 48.1909 6.43214 48.0056 6.46817 47.6434C6.909 43.2031 7.34297 38.761 7.77695 34.3189C7.85928 33.4693 7.95019 32.618 8.00337 31.7666C8.0291 31.3392 8.21778 31.1985 8.62774 31.1951C9.3739 31.1899 9.37561 31.1728 9.37561 30.4381C9.37561 27.455 9.36875 24.4702 9.3859 21.4871C9.38762 21.0408 9.24696 20.8057 8.825 20.622C6.31379 19.5321 3.8163 18.4096 1.31539 17.2973C1.19188 17.2424 1.01178 17.2235 0.998055 17.0622C0.980901 16.8562 1.19188 16.8425 1.32396 16.7824C3.5024 15.804 5.68084 14.8223 7.86786 13.8594C8.16804 13.7272 8.32756 13.5487 8.42019 13.2329C9.00167 11.247 10.7993 10.5209 12.6175 11.5336C12.844 11.6589 13.0258 11.6589 13.2522 11.5577C18.1614 9.38125 23.0723 7.20656 27.985 5.03874C30.9044 3.74972 33.8307 2.47958 36.7433 1.17682C37.2648 0.943392 37.7022 0.941675 38.2271 1.17339C43.5805 3.55233 48.9443 5.91067 54.3063 8.27245C60.3219 10.9226 66.3392 13.571 72.3548 16.2194C72.8008 16.4168 73.2502 16.6108 73.6927 16.815C73.8128 16.8699 73.9929 16.8991 73.9981 17.0639C74.0049 17.263 73.8059 17.2905 73.6704 17.3505C71.5966 18.2671 69.5228 19.1802 67.4473 20.0933C64.2706 21.4905 61.0955 22.8911 57.9154 24.2779C57.5997 24.4153 57.4385 24.6041 57.4608 24.9491C57.5774 26.8474 57.4299 28.7475 57.4951 30.6475C57.5534 32.3708 57.4814 34.0975 57.4694 35.8225C57.4659 36.346 57.3939 36.8815 57.4745 37.3913C57.7781 39.2725 56.8622 40.5735 55.5191 41.684C53.543 43.3215 51.3149 44.547 49.0078 45.6386C45.536 47.2812 41.975 48.7007 38.3094 49.8524C37.6816 50.0498 37.095 50.0481 36.4706 49.8473C31.6986 48.3042 27.0484 46.4659 22.6692 44.0029C21.0568 43.0966 19.5011 42.0943 18.2643 40.6799C17.6314 39.9556 17.3003 39.1489 17.3055 38.1585C17.3312 33.78 17.3106 29.3997 17.3243 25.0212C17.3243 24.5783 17.206 24.3363 16.7789 24.1527C15.0344 23.4009 13.3071 22.6045 11.5729 21.8286C11.0755 21.6055 10.9966 21.657 10.9949 22.1994C10.9897 23.6309 10.9949 25.0606 10.9914 26.4921L10.9949 26.4904ZM4.60534 16.8751C4.82147 16.9952 4.90724 17.0519 5.00158 17.0931C9.38933 19.0257 13.7788 20.9567 18.1683 22.8859C24.3931 25.6219 30.6214 28.3527 36.8411 31.099C37.2768 31.2912 37.6542 31.3049 38.0881 31.1161C41.6251 29.5868 45.1672 28.0678 48.7093 26.5539C55.9719 23.4489 63.2362 20.3474 70.4988 17.2407C70.6498 17.1755 70.9019 17.1617 70.8968 16.9643C70.8916 16.7755 70.6395 16.7584 70.4885 16.6931C67.9122 15.5792 65.334 14.4687 62.7542 13.3633C54.5328 9.83953 46.3096 6.3209 38.0916 2.79025C37.7228 2.63062 37.4071 2.63062 37.0452 2.79025C35.2424 3.58666 33.4345 4.36762 31.6266 5.15031C23.707 8.5814 15.7874 12.0108 7.86957 15.4436C6.81809 15.9002 5.77004 16.3636 4.60706 16.8751H4.60534ZM56.0268 31.9898H56.0645C56.0645 29.9661 56.0645 27.9442 56.0645 25.9206C56.0645 25.2031 56.0337 25.1894 55.3664 25.4846C49.6544 27.9974 43.9408 30.5034 38.2339 33.0299C37.7725 33.2342 37.3969 33.2101 36.9492 33.011C31.2749 30.5016 25.5921 28.006 19.911 25.5103C19.3364 25.258 19.3295 25.2649 19.3295 25.9154C19.3295 29.9095 19.345 33.9036 19.3141 37.8976C19.3089 38.6237 19.5508 39.1729 20.0225 39.6776C20.815 40.5237 21.7172 41.2378 22.6864 41.8608C27.009 44.6414 31.7089 46.5398 36.6799 47.7979C37.1704 47.9215 37.637 47.8803 38.1207 47.767C41.9407 46.8642 45.5943 45.5116 49.085 43.7266C51.4212 42.5319 53.646 41.1674 55.4899 39.2588C55.8484 38.888 56.0371 38.4915 56.0319 37.9577C56.0096 35.9701 56.0234 33.9808 56.0234 31.9932L56.0268 31.9898ZM7.92446 45.891C7.89016 46.7131 7.89187 46.7097 8.69807 46.883C9.70152 47.0993 10.7067 47.3173 11.7084 47.5404C12.4323 47.7018 12.4597 47.6949 12.4117 46.9568C12.2848 44.9761 12.1373 42.9971 12.0052 41.0164C11.8216 38.289 11.6415 35.5616 11.47 32.8342C11.4494 32.4961 11.3053 32.3742 10.9829 32.3828C10.53 32.3948 10.0772 32.4 9.62433 32.3794C9.25211 32.3622 9.09773 32.5081 9.07029 32.8857C8.97937 34.1009 8.85759 35.3127 8.75124 36.528C8.47507 39.6501 8.20063 42.7705 7.92446 45.8927V45.891Z" fill="#AB9B8B" stroke="#AB9B8B"/>
</g>
<defs>
<clipPath id="clip0_117_344">
<rect width="75" height="51" fill="white"/>
</clipPath>
</defs>
</svg>
