<svg width="43" height="59" viewBox="0 0 43 59" fill="none" xmlns="http://www.w3.org/2000/svg">
<path d="M21.5576 36.3618C13.4947 36.3811 6.24457 30.0766 6.27156 21.2749C6.29855 12.396 13.3043 6.20888 21.5801 6.2074C29.9354 6.2074 36.7896 13.0883 36.7686 21.3626C36.7476 29.7483 29.6909 36.4138 21.5561 36.3603L21.5576 36.3618ZM21.3746 35.1139C29.1931 35.1228 35.4161 29.0412 35.4326 21.3745C35.4491 13.7582 29.2156 7.50573 21.5921 7.50573C13.9701 7.50573 7.51016 13.3839 7.51915 21.318C7.52815 29.1704 14.0255 35.1095 21.3746 35.1139Z" fill="#AB9B8B"/>
<path d="M6.24434 53.6844C6.24434 52.1662 6.24434 50.648 6.24434 49.1283C6.24434 48.6663 6.25334 48.65 6.73018 48.6604C7.66738 48.6812 8.60757 48.5787 9.53877 48.7257C10.6799 48.9055 11.6501 49.4046 12.3204 50.3627C13.463 51.9968 12.9277 54.1434 11.1387 55.158C10.4295 55.5605 9.67222 55.7789 8.84749 55.7611C8.31067 55.7492 8.31067 55.7626 8.31067 56.3063C8.31067 56.9629 8.31067 57.6209 8.31067 58.2775C8.31067 58.7395 8.30317 58.744 7.82333 58.7455C7.43495 58.7455 7.04508 58.7306 6.65671 58.7499C6.34331 58.7663 6.23534 58.6519 6.23834 58.3399C6.25034 56.7876 6.24284 55.2352 6.24284 53.6829L6.24434 53.6844ZM8.31217 52.2256C8.31217 52.6326 8.31217 53.0411 8.31217 53.4482C8.31217 53.6071 8.33316 53.7423 8.54309 53.7527C9.17588 53.7824 9.77719 53.6844 10.2975 53.2981C10.9723 52.7975 11.0338 51.8587 10.4325 51.2749C9.89865 50.7564 9.23287 50.6613 8.5251 50.7118C8.33766 50.7252 8.31367 50.8545 8.31367 51.0015C8.31367 51.4085 8.31367 51.8171 8.31367 52.2241L8.31217 52.2256Z" fill="#AB9B8B"/>
<path d="M23.1845 57.0936C23.7169 57.1144 24.1862 56.9837 24.5821 56.6628C24.8025 56.4846 24.951 56.5173 25.1264 56.7163C25.3138 56.9302 25.5208 57.1278 25.7322 57.3179C25.9226 57.4888 25.8941 57.621 25.7292 57.7992C23.9868 59.6918 21.2127 59.2981 20.07 56.9911C19.1808 55.1966 19.4897 52.9951 20.8873 51.7473C22.2083 50.5678 23.7139 50.4593 25.1774 51.3908C26.416 52.1781 26.4939 53.9028 25.3678 54.8312C24.4306 55.6052 23.324 55.9097 22.1274 55.9542C21.7315 55.9691 21.691 56.0196 21.8889 56.3524C22.1814 56.847 22.5922 57.1531 23.186 57.0936H23.1845ZM21.808 54.338C22.0119 54.3246 22.2188 54.3232 22.4213 54.2964C23.0016 54.2177 23.5714 54.0944 24.0437 53.7215C24.4786 53.3784 24.4606 53.0263 24.0123 52.7025C23.9403 52.6505 23.8578 52.6059 23.7723 52.5747C22.8366 52.233 21.5441 53.1778 21.583 54.1701C21.589 54.3291 21.676 54.3588 21.8065 54.3395L21.808 54.338Z" fill="#AB9B8B"/>
<path d="M30.0551 58.7454C29.1734 58.7454 28.2917 58.7454 27.4115 58.7454C27.0051 58.7454 26.9961 58.7217 27.1776 58.3845C28.0818 56.7029 28.9845 55.0213 29.8842 53.3382C30.0836 52.9638 30.0746 52.952 29.6548 52.952C28.956 52.9505 28.2587 52.9445 27.5599 52.9549C27.281 52.9594 27.1671 52.8598 27.1791 52.5776C27.1956 52.2047 27.2001 51.8289 27.1791 51.456C27.1611 51.1337 27.272 51.0193 27.6064 51.0223C29.1524 51.0356 30.6969 51.0282 32.2429 51.0282C32.4484 51.0282 32.6553 51.0356 32.8607 51.0282C33.1201 51.0178 33.1606 51.1114 33.0422 51.3298C32.5608 52.2181 32.0855 53.1109 31.6071 54.0022C31.1558 54.843 30.7074 55.6853 30.2471 56.5216C30.1121 56.7682 30.1766 56.8306 30.4405 56.8276C31.2188 56.8187 31.997 56.8351 32.7752 56.8187C33.0856 56.8128 33.2101 56.9138 33.1921 57.2287C33.1711 57.5897 33.1666 57.9551 33.1921 58.3161C33.2191 58.6726 33.0677 58.7603 32.7333 58.7529C31.8411 58.735 30.9473 58.7469 30.0551 58.7469V58.7454Z" fill="#AB9B8B"/>
<path d="M14.6255 56.2008C14.6255 55.5992 14.6135 54.999 14.6285 54.3974C14.651 53.4571 14.3496 52.6579 13.6133 52.0458C13.3899 51.8602 13.3959 51.7458 13.6583 51.6076C14.0407 51.4041 14.4141 51.1798 14.7814 50.951C14.9494 50.847 15.0753 50.8619 15.1998 51.0075C15.4007 51.2407 15.6212 51.4576 15.8011 51.7042C15.9466 51.9047 16.0545 51.8973 16.2375 51.7532C16.6588 51.4204 17.0922 51.104 17.608 50.9228C17.7685 50.8664 17.9349 50.8218 18.1029 50.7832C18.3188 50.7341 18.4508 50.8069 18.4897 51.0416C18.5707 51.5229 18.6637 52.0013 18.7552 52.4796C18.7926 52.6742 18.7641 52.7841 18.5257 52.8361C17.7595 53.0025 17.2241 53.518 16.7278 54.0765C16.6034 54.2162 16.6258 54.3959 16.6258 54.5653C16.6258 55.8131 16.6153 57.0609 16.6318 58.3073C16.6363 58.6519 16.5224 58.7737 16.176 58.7514C15.7996 58.7262 15.4202 58.7306 15.0439 58.7514C14.7335 58.7678 14.6135 58.6608 14.621 58.3459C14.6375 57.6314 14.627 56.9168 14.6255 56.2023V56.2008Z" fill="#AB9B8B"/>
<path d="M34.7518 54.8549C34.7518 53.7229 34.7593 52.5895 34.7458 51.4575C34.7413 51.1411 34.8357 51.003 35.1746 51.0223C35.5855 51.0446 35.9978 51.0357 36.4087 51.0253C36.6471 51.0193 36.7641 51.0921 36.7641 51.3521C36.7581 53.7081 36.7581 56.0641 36.7641 58.4186C36.7641 58.6756 36.6531 58.7544 36.4117 58.7484C35.9889 58.738 35.5645 58.7321 35.1431 58.7499C34.8402 58.7633 34.7443 58.6444 34.7473 58.3533C34.7578 57.1871 34.7518 56.021 34.7518 54.8534V54.8549Z" fill="#AB9B8B"/>
<path d="M21.4991 4.6432C20.5109 4.62389 20.6294 4.75759 20.5979 3.73853C20.5634 2.63034 20.5139 1.52215 20.4584 0.415442C20.4435 0.107941 20.5454 -0.0198127 20.8648 0.00246995C21.3537 0.0381222 21.8455 0.0589193 22.3358 0.0648614C22.5923 0.0678324 22.6822 0.171818 22.6657 0.415442C22.6117 1.17157 22.5653 1.92769 22.5143 2.68382C22.4783 3.20226 22.4183 3.7207 22.4063 4.24063C22.3988 4.54962 22.2924 4.67737 21.979 4.64469C21.82 4.62835 21.6596 4.64172 21.4991 4.64172V4.6432Z" fill="#AB9B8B"/>
<path d="M28.9889 36.3261C29.1868 36.3113 29.2243 36.4167 29.2693 36.5044C29.8766 37.721 30.4809 38.9391 31.0912 40.1543C31.1887 40.3474 31.1302 40.4439 30.9457 40.5167C30.4374 40.7173 29.9291 40.9223 29.4237 41.1303C29.2318 41.2105 29.1238 41.1466 29.0563 40.9624C28.587 39.6997 28.1132 38.4385 27.6423 37.1758C27.6063 37.0808 27.5478 36.9589 27.6693 36.904C28.1236 36.6945 28.5855 36.5014 28.9904 36.3261H28.9889Z" fill="#AB9B8B"/>
<path d="M36.5675 13.5934C36.4415 13.6052 36.395 13.5221 36.3516 13.4433C36.1506 13.0883 35.9557 12.7288 35.7473 12.3767C35.6513 12.2133 35.6858 12.1108 35.8417 12.0128C37.0068 11.276 38.1705 10.5362 39.3311 9.79195C39.5005 9.6835 39.592 9.72658 39.6805 9.89148C39.9429 10.3817 40.2113 10.8675 40.4827 11.3532C40.5682 11.5062 40.5787 11.6191 40.3942 11.7097C39.1556 12.3203 37.9215 12.9353 36.6844 13.5473C36.644 13.5681 36.599 13.58 36.5675 13.5919V13.5934Z" fill="#AB9B8B"/>
<path d="M21.5186 38.0404C22.3299 38.0463 22.3509 38.0449 22.4078 38.8396C22.4723 39.719 22.4933 40.5999 22.5353 41.4808C22.5503 41.7735 22.5728 42.0676 22.5923 42.3603C22.6058 42.5668 22.5308 42.6856 22.3014 42.6767C21.7435 42.6529 21.1842 42.6321 20.6264 42.6098C20.4 42.6009 20.382 42.4464 20.3895 42.2771C20.418 41.6903 20.4435 41.1035 20.478 40.5167C20.5155 39.8735 20.5679 39.2318 20.5994 38.5886C20.6264 38.0597 20.6354 38.0419 21.1737 38.0419C21.2877 38.0419 21.4017 38.0419 21.5156 38.0419L21.5186 38.0404Z" fill="#AB9B8B"/>
<path d="M4.23961 20.4104C2.92903 20.3272 1.60647 20.2381 0.285396 20.1608C0.0319781 20.146 -0.0235038 20.0242 0.00798593 19.8058C0.081462 19.3022 0.151939 18.7971 0.217918 18.2921C0.250907 18.0366 0.36487 17.9549 0.634782 18.0039C1.89437 18.2297 3.15546 18.4436 4.41955 18.6426C4.76594 18.6976 4.85591 18.858 4.79593 19.1745C4.74194 19.4626 4.69846 19.7568 4.68196 20.0494C4.66397 20.3361 4.55301 20.4758 4.24111 20.4089L4.23961 20.4104Z" fill="#AB9B8B"/>
<path d="M38.9638 20.3613C38.515 20.3673 38.278 20.0761 38.2531 19.4878C38.2186 18.6872 38.2171 18.6782 39.0358 18.5475C40.1634 18.3693 41.2941 18.2118 42.4202 18.0276C42.7096 17.9801 42.8056 18.0618 42.8191 18.344C42.8416 18.8402 42.891 19.3363 42.9375 19.831C42.9645 20.1133 42.8326 20.2098 42.5611 20.2187C41.432 20.2559 40.3029 20.3064 38.9653 20.3598L38.9638 20.3613Z" fill="#AB9B8B"/>
<path d="M24.1517 38.0821C24.1067 37.9276 24.1802 37.834 24.3451 37.8028C24.7605 37.7241 25.1773 37.6483 25.5912 37.5666C25.7651 37.5324 25.8416 37.6112 25.8821 37.7671C26.2225 39.0848 26.5629 40.401 26.9093 41.7171C26.9618 41.9147 26.9093 42.0172 26.7023 42.0514C26.1505 42.1435 25.5987 42.2415 25.0469 42.3395C24.8729 42.3707 24.7605 42.3247 24.732 42.1301C24.5415 40.7842 24.3466 39.4398 24.1502 38.0806L24.1517 38.0821Z" fill="#AB9B8B"/>
<path d="M24.1352 4.65068C24.3736 3.21568 24.597 1.87426 24.8205 0.531364C24.8565 0.314479 24.9794 0.256544 25.1894 0.310023C25.7097 0.442233 26.233 0.565531 26.7578 0.688828C26.9318 0.728937 27.0218 0.815096 26.9693 1.00078C26.6004 2.32289 26.23 3.64499 25.8626 4.9671C25.8221 5.11119 25.7427 5.17507 25.5852 5.13645C25.1744 5.0384 24.762 4.94333 24.3481 4.85271C24.1802 4.81557 24.1157 4.72347 24.1352 4.65068Z" fill="#AB9B8B"/>
<path d="M42.1849 15.5423C42.2179 15.8216 42.0424 15.8142 41.921 15.8454C40.9148 16.1098 39.9056 16.3683 38.8995 16.6283C38.6115 16.7025 38.3236 16.7738 38.0372 16.8555C37.8438 16.9105 37.7358 16.8541 37.6803 16.658C37.5739 16.2866 37.4584 15.9197 37.337 15.5527C37.274 15.3641 37.3265 15.2482 37.5109 15.1799C38.796 14.7001 40.0796 14.2188 41.3646 13.7375C41.4801 13.6944 41.6046 13.6751 41.6511 13.8206C41.8415 14.4148 42.0214 15.012 42.1849 15.5409V15.5423Z" fill="#AB9B8B"/>
<path d="M17.3842 5.1215C17.0723 5.16012 17.0693 4.97889 17.0348 4.84668C16.7754 3.86179 16.522 2.87392 16.2655 1.88755C16.1891 1.59193 16.1126 1.29631 16.0301 1.0007C15.9776 0.813523 16.0241 0.68874 16.2296 0.651602C16.7904 0.549102 17.3527 0.448087 17.915 0.345587C18.0875 0.314391 18.1714 0.388667 18.1954 0.555044C18.3949 1.90983 18.5943 3.26313 18.7952 4.61791C18.8147 4.74864 18.7757 4.84965 18.6408 4.87788C18.1939 4.96998 17.7456 5.05317 17.3842 5.12299V5.1215Z" fill="#AB9B8B"/>
<path d="M42.249 27.0878C42.2385 27.119 42.222 27.1739 42.2026 27.2259C42.0211 27.7265 41.8352 28.2257 41.6582 28.7278C41.5967 28.9016 41.5278 29.0041 41.3133 28.9179C40.0403 28.4114 38.7642 27.9137 37.4896 27.4131C37.3396 27.3537 37.2692 27.2586 37.3276 27.0952C37.4626 26.7105 37.599 26.3257 37.731 25.9395C37.7955 25.7478 37.9184 25.7092 38.1059 25.7627C39.415 26.1281 40.7255 26.4891 42.0346 26.8531C42.1426 26.8828 42.2685 26.9036 42.252 27.0878H42.249Z" fill="#AB9B8B"/>
<path d="M0.76668 26.9897C0.762182 26.7045 0.95112 26.7045 1.09807 26.6673C2.2482 26.3747 3.39832 26.0835 4.54995 25.7953C5.3042 25.6067 5.17524 25.5903 5.38368 26.2484C5.44216 26.4311 5.49464 26.6168 5.55162 26.801C5.69707 27.2779 5.70007 27.2838 5.24122 27.4517C4.04311 27.8944 2.842 28.3311 1.6424 28.7693C1.52243 28.8124 1.36049 28.9223 1.29601 28.7233C1.10257 28.132 0.931627 27.5334 0.76668 26.9897Z" fill="#AB9B8B"/>
<path d="M38.7344 22.2093C40.03 22.291 41.363 22.3786 42.6961 22.4544C42.9345 22.4678 43.026 22.5614 42.993 22.7931C42.9195 23.3086 42.8491 23.824 42.7801 24.3395C42.7486 24.5802 42.6346 24.6559 42.3827 24.6114C41.1006 24.3871 39.8155 24.1731 38.5305 23.9681C38.2575 23.9251 38.1541 23.8077 38.1976 23.5359C38.2516 23.2016 38.2905 22.8629 38.3265 22.5257C38.3505 22.2955 38.445 22.1632 38.7359 22.2078L38.7344 22.2093Z" fill="#AB9B8B"/>
<path d="M9.58111 39.101C9.52413 39.0669 9.45215 39.0342 9.38917 38.9866C8.95731 38.6524 8.53145 38.3107 8.09359 37.9824C7.92265 37.8547 7.92115 37.7462 8.05161 37.5917C8.92132 36.5712 9.78954 35.5507 10.6503 34.5227C10.8002 34.3429 10.9157 34.3281 11.0971 34.4766C11.388 34.7143 11.6924 34.9371 11.9998 35.1525C12.1798 35.2788 12.1888 35.3947 12.0673 35.5729C11.313 36.6796 10.5678 37.7938 9.81653 38.9035C9.76105 38.9852 9.72056 39.0891 9.58111 39.101Z" fill="#AB9B8B"/>
<path d="M5.04342 16.9224C4.10323 16.6609 3.21102 16.4128 2.31731 16.1648C1.87645 16.043 1.43709 15.9167 0.994738 15.8008C0.793803 15.7488 0.697834 15.6716 0.787805 15.4443C0.98724 14.9377 1.17018 14.4237 1.35162 13.9112C1.4191 13.7211 1.52556 13.6647 1.7175 13.7404C2.99209 14.247 4.26667 14.7506 5.54276 15.2512C5.7122 15.318 5.73169 15.4205 5.67621 15.5735C5.53526 15.9568 5.4018 16.343 5.26535 16.7278C5.22036 16.854 5.16638 16.9669 5.04342 16.9224Z" fill="#AB9B8B"/>
<path d="M3.5574 9.80094C3.62338 9.83808 3.70585 9.8767 3.78083 9.92572C4.86497 10.6388 5.94612 11.3578 7.03477 12.0649C7.2477 12.203 7.31518 12.3322 7.16373 12.558C6.96279 12.8596 6.77985 13.173 6.59391 13.485C6.48895 13.6618 6.36449 13.7093 6.16955 13.6083C5.00743 13.0037 3.83931 12.408 2.67719 11.8019C2.29781 11.6043 2.30681 11.5939 2.54073 11.2241C2.79565 10.8215 3.04307 10.4145 3.29798 10.0119C3.35497 9.92126 3.39245 9.79797 3.5559 9.79945L3.5574 9.80094Z" fill="#AB9B8B"/>
<path d="M4.75978 23.3309C4.77027 23.8895 4.77027 23.8836 4.20496 23.9623C3.00535 24.1301 1.80724 24.301 0.60763 24.4748C0.199762 24.5342 0.154777 24.4971 0.133784 24.0841C0.109792 23.5983 0.0887985 23.1111 0.0498112 22.6268C0.0318171 22.4084 0.0932971 22.3238 0.324222 22.3163C1.6258 22.2792 2.92737 22.2346 4.22895 22.1782C4.54385 22.1648 4.6953 22.251 4.6878 22.5882C4.6818 22.8348 4.73429 23.0829 4.75978 23.3309Z" fill="#AB9B8B"/>
<path d="M17.7969 42.3588C17.2871 42.2355 16.7113 42.0944 16.134 41.9548C15.96 41.9132 15.9285 41.8062 15.9735 41.6473C16.3424 40.3519 16.7098 39.0565 17.0726 37.7597C17.1311 37.5502 17.2421 37.4938 17.4505 37.5473C17.8149 37.6394 18.1838 37.7166 18.5527 37.7968C18.7536 37.8399 18.8361 37.9379 18.7986 38.1578C18.5707 39.4725 18.3532 40.7886 18.1298 42.1048C18.1058 42.2504 18.0848 42.4123 17.7969 42.3603V42.3588Z" fill="#AB9B8B"/>
<path d="M31.1903 2.4387C31.1738 2.47584 31.1558 2.5308 31.1303 2.57982C30.499 3.78457 29.8647 4.98783 29.2349 6.19407C29.1524 6.35153 29.058 6.41244 28.881 6.32776C28.5122 6.1495 28.1388 5.97718 27.7639 5.80932C27.5915 5.73207 27.563 5.63106 27.6319 5.45874C28.1373 4.19754 28.6381 2.93337 29.1345 1.6692C29.2079 1.48203 29.3039 1.42409 29.4973 1.51917C29.9982 1.76576 30.505 1.99899 31.0088 2.23964C31.0898 2.27826 31.1828 2.30797 31.1903 2.4387Z" fill="#AB9B8B"/>
<path d="M6.37923 28.9758C6.48419 28.958 6.53068 29.0248 6.56967 29.0947C6.7781 29.472 6.98203 29.8508 7.19496 30.2251C7.31492 30.4346 7.16197 30.5103 7.02702 30.595C6.19929 31.1179 5.36856 31.6379 4.53933 32.1593C4.23043 32.3524 3.91703 32.5396 3.61413 32.7416C3.44168 32.8575 3.32922 32.8381 3.23175 32.6539C2.96634 32.1533 2.69643 31.6557 2.42502 31.1565C2.35454 31.0258 2.35604 30.9233 2.50599 30.8505C3.76708 30.237 5.02667 29.622 6.28626 29.0085C6.31625 28.9936 6.35074 28.9847 6.37623 28.9758H6.37923Z" fill="#AB9B8B"/>
<path d="M12.1842 7.28144C12.1977 7.41216 12.1092 7.45821 12.0372 7.50872C11.7118 7.73898 11.3819 7.96329 11.058 8.198C10.8931 8.31832 10.7791 8.28564 10.6562 8.13115C9.81943 7.08387 8.9797 6.03658 8.12948 4.99821C7.96453 4.79618 7.98703 4.68031 8.20146 4.54216C8.64381 4.25991 9.07567 3.96132 9.50603 3.66125C9.67998 3.53944 9.80294 3.53795 9.92739 3.73107C10.6487 4.86154 11.3759 5.98607 12.1002 7.11506C12.1362 7.17151 12.1617 7.23539 12.1842 7.27995V7.28144Z" fill="#AB9B8B"/>
<path d="M40.5982 31.2101C40.5772 31.2487 40.5547 31.3007 40.5247 31.3482C40.2368 31.8102 39.9429 32.2678 39.661 32.7342C39.541 32.9318 39.4166 32.9674 39.2186 32.8337C38.103 32.085 36.9844 31.3423 35.8627 30.6025C35.6933 30.4911 35.6633 30.3886 35.7758 30.2163C35.9917 29.8835 36.1971 29.5433 36.3951 29.2002C36.4895 29.0368 36.593 29.013 36.7579 29.0992C37.971 29.7305 39.1871 30.3559 40.4003 30.9858C40.4872 31.0303 40.5937 31.0689 40.5997 31.2101H40.5982Z" fill="#AB9B8B"/>
<path d="M38.163 34.86C38.1241 34.912 38.0821 34.9788 38.0281 35.0353C37.6532 35.4171 37.2708 35.7929 36.9005 36.1791C36.7505 36.3366 36.6335 36.35 36.4761 36.188C35.5284 35.2195 34.5747 34.2554 33.621 33.2943C33.5011 33.1739 33.4831 33.0803 33.609 32.9511C33.8879 32.6659 34.1578 32.3732 34.4263 32.0791C34.5672 31.9231 34.6917 31.9112 34.8626 32.0524C35.8913 32.9006 36.9289 33.7384 37.9606 34.5837C38.0446 34.652 38.16 34.7055 38.1645 34.86H38.163Z" fill="#AB9B8B"/>
<path d="M32.0749 34.4173C32.2098 34.4336 32.2683 34.5227 32.3313 34.6C33.165 35.6354 33.9913 36.6767 34.831 37.7077C34.9989 37.9127 34.9689 38.0211 34.756 38.1563C34.3031 38.443 33.8608 38.746 33.4214 39.0506C33.2565 39.1649 33.1515 39.162 33.0361 38.9807C32.3073 37.8295 31.571 36.6827 30.8348 35.5358C30.7583 35.417 30.7208 35.316 30.8648 35.2179C31.2232 34.9743 31.5785 34.7277 31.9369 34.4841C31.9834 34.4529 32.0374 34.4336 32.0734 34.4158L32.0749 34.4173Z" fill="#AB9B8B"/>
<path d="M13.5756 41.1868C13.5246 41.166 13.4601 41.1422 13.3987 41.1125C12.9068 40.8719 12.4195 40.6238 11.9231 40.3935C11.7132 40.2955 11.7027 40.193 11.8062 39.9999C12.424 38.8516 13.0343 37.7003 13.6326 36.5431C13.766 36.2846 13.8995 36.2237 14.1634 36.3678C14.4723 36.5371 14.7977 36.6768 15.1216 36.8179C15.318 36.9026 15.366 37.0155 15.2851 37.2175C14.7782 38.4668 14.2789 39.7191 13.7765 40.9684C13.7406 41.0575 13.7256 41.1734 13.5756 41.1838V41.1868Z" fill="#AB9B8B"/>
<path d="M32.0181 8.25151C31.9731 8.22477 31.9131 8.19506 31.8591 8.15495C31.5382 7.91875 31.2218 7.67662 30.8964 7.44488C30.7195 7.32009 30.7075 7.19977 30.8275 7.02002C31.5727 5.90589 32.3105 4.78878 33.0437 3.66722C33.1742 3.46817 33.2807 3.43697 33.4741 3.59295C33.8895 3.93016 34.3168 4.254 34.7472 4.57041C34.9181 4.69668 34.9631 4.79176 34.8087 4.97596C33.9375 6.00987 33.0782 7.0527 32.213 8.09256C32.1635 8.15198 32.126 8.22774 32.0181 8.25002V8.25151Z" fill="#AB9B8B"/>
<path d="M6.20241 36.3276C6.14393 36.2786 6.08545 36.2429 6.04346 36.1939C5.67309 35.7631 5.3102 35.3264 4.93683 34.9C4.79137 34.7337 4.84535 34.6327 4.99831 34.5138C6.05846 33.6894 7.11562 32.8619 8.16827 32.0286C8.32572 31.9038 8.43219 31.8934 8.56564 32.0553C8.81306 32.3524 9.07248 32.6376 9.33039 32.9243C9.46685 33.0758 9.47885 33.2021 9.3184 33.3581C8.33322 34.3029 7.35704 35.2551 6.37636 36.2028C6.32837 36.2489 6.26989 36.2816 6.20391 36.3291L6.20241 36.3276Z" fill="#AB9B8B"/>
<path d="M9.50458 9.55724C9.49258 9.58101 9.48509 9.61666 9.46259 9.64043C9.1357 9.98804 8.8163 10.3431 8.47592 10.6773C8.33646 10.814 8.224 10.6521 8.12653 10.5733C7.25231 9.86326 6.3826 9.14873 5.51138 8.4342C5.48439 8.41191 5.4604 8.38814 5.43491 8.36586C5.00604 8.0034 4.99405 7.61865 5.39892 7.21162C5.64784 6.96206 5.90275 6.71695 6.13518 6.45253C6.27313 6.29655 6.3736 6.27872 6.52205 6.43173C7.47574 7.40622 8.43543 8.37626 9.39362 9.34778C9.4491 9.40423 9.51208 9.45771 9.50608 9.55576L9.50458 9.55724Z" fill="#AB9B8B"/>
<path d="M13.6564 1.52808C13.8378 1.51768 13.8633 1.67366 13.9083 1.79399C14.2757 2.7566 14.6385 3.72218 15.0029 4.68776C15.1034 4.95218 15.1934 5.22254 15.3058 5.48102C15.3928 5.68008 15.3493 5.79744 15.1454 5.87765C14.784 6.01878 14.4241 6.16584 14.0702 6.32182C13.8858 6.40352 13.7778 6.36639 13.6864 6.18664C13.0776 4.97001 12.4613 3.75635 11.8495 2.5412C11.7925 2.42682 11.725 2.30797 11.9034 2.2337C12.4628 2.00493 13.0221 1.77616 13.5814 1.54739C13.6024 1.53848 13.6249 1.53551 13.6564 1.52808Z" fill="#AB9B8B"/>
<path d="M36.7222 6.30996C36.8392 6.31739 36.8827 6.3872 36.9352 6.44662C37.2891 6.86108 37.643 7.27554 37.9983 7.68851C38.1243 7.83558 38.1813 7.94699 37.9818 8.10148C36.9127 8.93188 35.8525 9.77565 34.7924 10.6165C34.6529 10.7279 34.536 10.7427 34.4115 10.5957C34.1386 10.2763 33.8642 9.95837 33.5838 9.64493C33.4728 9.52163 33.5028 9.43101 33.6093 9.32703C34.5989 8.3555 35.5871 7.38101 36.5768 6.40949C36.6233 6.36344 36.6848 6.33373 36.7238 6.30847L36.7222 6.30996Z" fill="#AB9B8B"/>
<path d="M34.5987 48.644C34.5942 47.9592 35.0935 47.4482 35.7713 47.4438C36.4011 47.4393 36.9499 47.9815 36.9574 48.6143C36.9649 49.262 36.4086 49.8221 35.7653 49.8146C35.101 49.8072 34.6017 49.3081 34.5972 48.6426L34.5987 48.644Z" fill="#AB9B8B"/>
<path d="M8.77123 21.2453C8.71425 14.0703 14.7108 8.6526 21.6865 8.70459C28.5168 8.75659 34.2674 14.562 34.2059 21.428C34.1445 28.3029 28.4493 33.8676 21.5696 33.8676C14.3674 33.8676 8.64077 28.0355 8.77123 21.2453ZM21.5351 32.602C27.6126 32.6629 32.9089 28.1366 32.9404 21.3656C32.9718 14.8472 27.4611 9.93163 21.6295 9.89746C15.3031 9.86032 10.1238 14.6778 10.1283 21.3166C10.1328 27.9226 15.2611 32.6347 21.5336 32.602H21.5351Z" fill="#AB9B8B"/>
<path d="M31.7438 21.3448C31.7378 26.9154 27.1043 31.5324 21.5322 31.522C15.9315 31.5116 11.1915 26.8694 11.2695 21.3492C11.34 16.3921 14.7724 11.2091 21.5981 11.2507C27.3698 11.2864 31.7768 15.9375 31.7438 21.3448ZM21.5607 30.1494C26.512 30.1494 30.4138 26.2737 30.4183 21.3463C30.4243 16.3549 26.5165 12.4035 21.5711 12.4035C16.5973 12.4035 12.5801 16.3861 12.5801 21.3195C12.5801 26.2232 16.5718 30.1494 21.5607 30.1494Z" fill="#AB9B8B"/>
<path d="M22.3989 21.3358C22.3989 23.6027 22.3989 25.8696 22.3989 28.1365C22.3989 28.5806 22.3869 28.591 21.9356 28.5925C21.6612 28.5925 21.3868 28.5836 21.1124 28.5955C20.8529 28.6074 20.7195 28.5138 20.7435 28.2434C20.7495 28.1766 20.7435 28.1082 20.7435 28.0399C20.7435 23.5522 20.7435 19.0645 20.7435 14.5753C20.7435 14.2039 20.9329 14.0182 21.3118 14.0182C21.4947 14.0182 21.6777 14.0182 21.8606 14.0182C22.2185 14.0182 22.3979 14.1905 22.3989 14.5351C22.3989 15.1011 22.3989 15.6686 22.3989 16.2346C22.3989 17.934 22.3989 19.6349 22.3989 21.3343V21.3358Z" fill="#AB9B8B"/>
<path d="M24.1113 21.2126C24.1113 19.0928 24.1113 16.973 24.1113 14.8531C24.1113 14.3496 24.1188 14.3451 24.6107 14.5159C25.7203 14.9022 25.7653 14.966 25.7653 16.1322C25.7653 19.736 25.7593 23.3413 25.7713 26.9452C25.7713 27.2869 25.6648 27.4919 25.3619 27.6449C25.086 27.7845 24.8101 27.9182 24.5162 28.0162C24.1548 28.1381 24.1143 28.1113 24.1128 27.7414C24.1083 27.0388 24.1128 26.3361 24.1128 25.6335C24.1128 24.1599 24.1128 22.6862 24.1128 21.2126H24.1113Z" fill="#AB9B8B"/>
<path d="M19.0341 21.3062C19.0341 23.4364 19.0341 25.5666 19.0341 27.6969C19.0341 28.0207 18.8746 28.1272 18.5557 28.0162C18.5347 28.0088 18.5122 28.0014 18.4912 27.994C17.4521 27.6211 17.3831 27.5231 17.3831 26.4357C17.3831 22.8437 17.3861 19.2517 17.3711 15.6598C17.3696 15.2602 17.5001 15.0151 17.8629 14.868C18.1164 14.7655 18.3578 14.6333 18.6142 14.5382C18.9966 14.3956 19.0296 14.4238 19.0341 14.8145C19.0371 15.018 19.0341 15.223 19.0341 15.4265C19.0341 17.3874 19.0341 19.3468 19.0341 21.3077V21.3062Z" fill="#AB9B8B"/>
<path d="M15.6449 16.8749C15.6539 17.0249 15.6644 17.1245 15.6644 17.224C15.6644 19.8979 15.6644 22.5733 15.6644 25.2472C15.6644 25.3542 15.7214 25.5191 15.609 25.5577C15.465 25.6082 15.4155 25.4314 15.3495 25.3378C14.3389 23.891 14.0435 22.2718 14.1844 20.5501C14.2804 19.378 14.6103 18.2817 15.2686 17.2938C15.3615 17.1542 15.447 17.0056 15.6479 16.8734L15.6449 16.8749Z" fill="#AB9B8B"/>
<path d="M27.4655 25.5414C27.3695 25.3973 27.398 25.2814 27.398 25.1715C27.3965 22.5302 27.398 19.8875 27.398 17.2463C27.398 17.2002 27.3935 17.1557 27.398 17.1096C27.4085 17.0368 27.365 16.9299 27.467 16.9046C27.5554 16.8823 27.6019 16.9759 27.6469 17.0383C28.1238 17.7008 28.4716 18.4258 28.6621 19.2175C29.1209 21.1383 28.9905 22.9982 28.0368 24.763C27.8868 25.0393 27.7354 25.3185 27.4655 25.5428V25.5414Z" fill="#AB9B8B"/>
</svg>
