<svg width="50" height="50" viewBox="0 0 50 50" fill="none" xmlns="http://www.w3.org/2000/svg">
<g clip-path="url(#clip0_917_2755)">
<path fill-rule="evenodd" clip-rule="evenodd" d="M50 24.3564C50 37.8052 39.0104 48.711 25.455 48.711C21.1496 48.711 17.1062 47.6124 13.5903 45.6807L0 50L4.42939 36.9337C2.19373 33.2623 0.908234 28.9587 0.908234 24.3581C0.908234 10.904 11.8979 0 25.455 0C39.0121 0 50 10.904 50 24.3564ZM25.455 3.8792C14.0724 3.8792 4.81713 13.0646 4.81713 24.3564C4.81713 28.8347 6.27554 32.9846 8.74699 36.3625L6.17075 43.9655L14.1003 41.4469C17.3577 43.5847 21.2614 44.8318 25.455 44.8318C36.8324 44.8318 46.0911 35.6464 46.0911 24.3564C46.0911 13.0663 36.8324 3.8792 25.455 3.8792ZM37.8489 29.9665C37.6969 29.7167 37.2952 29.5682 36.6961 29.2696C36.0936 28.9709 33.1348 27.5265 32.5829 27.3274C32.0327 27.1282 31.6275 27.0287 31.2293 27.626C30.8275 28.2234 29.6748 29.5682 29.322 29.9665C28.9727 30.3664 28.6216 30.4136 28.0208 30.1149C27.4182 29.8163 25.4777 29.184 23.1809 27.1527C21.3941 25.5685 20.1855 23.6158 19.8327 23.0185C19.4834 22.4211 19.7977 22.0998 20.0964 21.8011C20.3671 21.5321 20.699 21.1042 20.9994 20.7566C21.3016 20.4073 21.4011 20.1558 21.602 19.7576C21.8028 19.3593 21.7033 19.0118 21.5513 18.7131C21.4029 18.4144 20.1977 15.4766 19.6964 14.2802C19.1987 13.0873 18.6956 13.131 18.3428 13.131C17.99 13.131 17.3438 13.2358 17.3438 13.2358C17.3438 13.2358 16.1369 13.3842 15.5867 13.9816C15.0365 14.5789 13.482 16.0233 13.482 18.9594C13.482 21.8954 15.6356 24.7371 15.9378 25.1336C16.2399 25.5336 20.0982 31.7585 26.2165 34.1478C32.3331 36.5372 32.3331 35.7407 33.437 35.6394C34.5391 35.5416 36.9965 34.1967 37.4978 32.8012C37.9991 31.4074 37.9991 30.211 37.8506 29.963L37.8489 29.9665Z" fill="#F9F4E1"/>
</g>
<defs>
<clipPath id="clip0_917_2755">
<rect width="50" height="50" fill="white"/>
</clipPath>
</defs>
</svg>
