<svg width="39" height="39" viewBox="0 0 39 39" fill="none" xmlns="http://www.w3.org/2000/svg">
<g clip-path="url(#clip0_1255_70)">
<path fill-rule="evenodd" clip-rule="evenodd" d="M39 18.998C39 29.4881 30.4281 37.9946 19.8549 37.9946C16.4967 37.9946 13.3429 37.1377 10.6004 35.6309L0 39L3.45492 28.8083C1.71111 25.9446 0.708422 22.5878 0.708422 18.9993C0.708422 8.50515 9.28033 0 19.8549 0C30.4295 0 39 8.50515 39 18.998ZM19.8549 3.02578C10.9765 3.02578 3.75736 10.1904 3.75736 18.998C3.75736 22.491 4.89492 25.728 6.82265 28.3628L4.81318 34.2931L10.9983 32.3286C13.539 33.9961 16.5839 34.9688 19.8549 34.9688C28.7292 34.9688 35.9511 27.8042 35.9511 18.998C35.9511 10.1917 28.7292 3.02578 19.8549 3.02578ZM29.5221 23.3738C29.4036 23.179 29.0903 23.0632 28.623 22.8303C28.153 22.5973 25.8451 21.4706 25.4146 21.3153C24.9855 21.16 24.6694 21.0824 24.3588 21.5483C24.0455 22.0142 23.1463 23.0632 22.8711 23.3738C22.5987 23.6858 22.3248 23.7226 21.8562 23.4896C21.3862 23.2567 19.8726 22.7635 18.0811 21.1791C16.6874 19.9434 15.7447 18.4203 15.4695 17.9544C15.197 17.4885 15.4422 17.2378 15.6752 17.0049C15.8864 16.7951 16.1452 16.4613 16.3795 16.1902C16.6152 15.9177 16.6929 15.7215 16.8495 15.4109C17.0062 15.1003 16.9286 14.8292 16.81 14.5962C16.6942 14.3633 15.7542 12.0718 15.3632 11.1386C14.975 10.2081 14.5826 10.2421 14.3074 10.2421C14.0322 10.2421 13.5281 10.3239 13.5281 10.3239C13.5281 10.3239 12.5868 10.4397 12.1576 10.9056C11.7285 11.3715 10.516 12.4982 10.516 14.7883C10.516 17.0784 12.1958 19.295 12.4314 19.6042C12.6671 19.9162 15.6766 24.7716 20.4489 26.6353C25.2198 28.499 25.2198 27.8778 26.0808 27.7988C26.9405 27.7225 28.8573 26.6735 29.2483 25.5849C29.6393 24.4978 29.6393 23.5646 29.5235 23.3711L29.5221 23.3738Z" fill="#543310"/>
</g>
<defs>
<clipPath id="clip0_1255_70">
<rect width="39" height="39" fill="white"/>
</clipPath>
</defs>
</svg>
