<svg width="823" height="167" viewBox="0 0 823 167" fill="none" xmlns="http://www.w3.org/2000/svg">
<g filter="url(#filter0_i_707_1448)">
<path d="M125.252 129.34C125.252 127.14 124.746 125.468 123.734 124.324C122.766 123.136 121.314 122.542 119.378 122.542C119.246 122.542 119.18 122.41 119.18 122.146C119.18 121.882 119.246 121.75 119.378 121.75C120.39 121.75 121.446 121.794 122.546 121.882C123.646 121.926 124.834 121.948 126.11 121.948C127.21 121.948 128.288 121.926 129.344 121.882C130.444 121.794 131.456 121.75 132.38 121.75C132.468 121.75 132.512 121.882 132.512 122.146C132.512 122.41 132.468 122.542 132.38 122.542C130.62 122.542 129.278 123.136 128.354 124.324C127.474 125.468 127.034 127.14 127.034 129.34V148.018C127.034 151.318 126.374 154.156 125.054 156.532C123.734 158.908 121.886 160.734 119.51 162.01C117.134 163.242 114.362 163.858 111.194 163.858C107.938 163.858 105.078 163.242 102.614 162.01C100.15 160.734 98.236 158.93 96.872 156.598C95.508 154.266 94.826 151.494 94.826 148.282V127.096C94.826 125.82 94.694 124.874 94.43 124.258C94.166 123.598 93.638 123.158 92.846 122.938C92.098 122.674 90.976 122.542 89.48 122.542C89.348 122.542 89.282 122.41 89.282 122.146C89.282 121.882 89.348 121.75 89.48 121.75C90.58 121.75 91.79 121.794 93.11 121.882C94.43 121.926 95.86 121.948 97.4 121.948C98.984 121.948 100.436 121.926 101.756 121.882C103.12 121.794 104.308 121.75 105.32 121.75C105.452 121.75 105.518 121.882 105.518 122.146C105.518 122.41 105.452 122.542 105.32 122.542C103.824 122.542 102.68 122.674 101.888 122.938C101.14 123.202 100.634 123.664 100.37 124.324C100.15 124.984 100.04 125.952 100.04 127.228V145.972C100.04 151.252 101.184 155.212 103.472 157.852C105.76 160.448 108.928 161.746 112.976 161.746C116.848 161.746 119.862 160.558 122.018 158.182C124.174 155.762 125.252 152.396 125.252 148.084V129.34ZM141.369 157.654V127.096C141.369 125.82 141.237 124.874 140.973 124.258C140.709 123.598 140.181 123.158 139.389 122.938C138.641 122.674 137.519 122.542 136.023 122.542C135.891 122.542 135.825 122.41 135.825 122.146C135.825 121.882 135.891 121.75 136.023 121.75C137.123 121.75 138.333 121.794 139.653 121.882C141.017 121.926 142.447 121.948 143.943 121.948C145.527 121.948 146.979 121.926 148.299 121.882C149.663 121.794 150.873 121.75 151.929 121.75C152.017 121.75 152.061 121.882 152.061 122.146C152.061 122.41 152.017 122.542 151.929 122.542C150.389 122.542 149.245 122.674 148.497 122.938C147.749 123.202 147.243 123.664 146.979 124.324C146.715 124.984 146.583 125.952 146.583 127.228V157.654C146.583 158.93 146.693 159.898 146.913 160.558C147.177 161.218 147.683 161.658 148.431 161.878C149.223 162.098 150.389 162.208 151.929 162.208C152.061 162.208 152.127 162.34 152.127 162.604C152.127 162.868 152.061 163 151.929 163C150.829 163 149.619 162.978 148.299 162.934C146.979 162.89 145.527 162.868 143.943 162.868C142.447 162.868 140.995 162.89 139.587 162.934C138.223 162.978 136.991 163 135.891 163C135.803 163 135.759 162.868 135.759 162.604C135.759 162.34 135.803 162.208 135.891 162.208C137.431 162.208 138.597 162.098 139.389 161.878C140.181 161.658 140.709 161.218 140.973 160.558C141.237 159.898 141.369 158.93 141.369 157.654ZM158.133 153.43L148.101 140.56L152.061 137.128L161.829 149.866C163.721 152.374 165.327 154.42 166.647 156.004C167.967 157.588 169.067 158.82 169.947 159.7C170.871 160.536 171.663 161.152 172.323 161.548C173.027 161.9 173.687 162.098 174.303 162.142C174.963 162.186 175.689 162.208 176.481 162.208C176.613 162.208 176.679 162.34 176.679 162.604C176.679 162.868 176.613 163 176.481 163C174.545 163 172.983 163 171.795 163C170.607 163 169.705 163 169.089 163C168.121 163 167.373 163 166.845 163C166.317 163.044 165.877 162.956 165.525 162.736C165.173 162.516 164.733 162.098 164.205 161.482C163.677 160.822 162.951 159.854 162.027 158.578C161.103 157.302 159.805 155.586 158.133 153.43ZM143.151 144.652L160.113 127.558C161.785 125.886 162.467 124.632 162.159 123.796C161.851 122.96 160.575 122.542 158.331 122.542C158.199 122.542 158.133 122.41 158.133 122.146C158.133 121.882 158.199 121.75 158.331 121.75C159.431 121.75 160.553 121.794 161.697 121.882C162.841 121.926 164.359 121.948 166.251 121.948C168.099 121.948 169.551 121.926 170.607 121.882C171.707 121.794 172.741 121.75 173.709 121.75C173.841 121.75 173.907 121.882 173.907 122.146C173.907 122.41 173.841 122.542 173.709 122.542C171.993 122.542 170.035 122.982 167.835 123.862C165.679 124.698 163.655 126.062 161.763 127.954L144.801 144.718L143.151 144.652ZM213.86 127.228C213.86 125.952 213.728 124.984 213.464 124.324C213.244 123.664 212.716 123.202 211.88 122.938C211.088 122.674 209.856 122.542 208.184 122.542C208.052 122.542 207.986 122.41 207.986 122.146C207.986 121.882 208.052 121.75 208.184 121.75C209.24 121.75 210.45 121.794 211.814 121.882C213.222 121.926 214.784 121.948 216.5 121.948C217.996 121.948 219.448 121.926 220.856 121.882C222.308 121.794 223.562 121.75 224.618 121.75C224.75 121.75 224.816 121.882 224.816 122.146C224.816 122.41 224.75 122.542 224.618 122.542C223.078 122.542 221.89 122.674 221.054 122.938C220.262 123.158 219.734 123.598 219.47 124.258C219.206 124.874 219.074 125.82 219.074 127.096V157.654C219.074 158.93 219.206 159.898 219.47 160.558C219.734 161.218 220.262 161.658 221.054 161.878C221.89 162.098 223.078 162.208 224.618 162.208C224.75 162.208 224.816 162.34 224.816 162.604C224.816 162.868 224.75 163 224.618 163C223.562 163 222.308 162.978 220.856 162.934C219.448 162.89 217.996 162.868 216.5 162.868C214.784 162.868 213.222 162.89 211.814 162.934C210.45 162.978 209.24 163 208.184 163C208.052 163 207.986 162.868 207.986 162.604C207.986 162.34 208.052 162.208 208.184 162.208C209.856 162.208 211.088 162.098 211.88 161.878C212.716 161.658 213.244 161.218 213.464 160.558C213.728 159.898 213.86 158.93 213.86 157.654V127.228ZM186.998 142.276V140.758H216.17V142.276H186.998ZM184.556 157.654V127.096C184.556 125.82 184.424 124.874 184.16 124.258C183.896 123.598 183.368 123.158 182.576 122.938C181.784 122.674 180.618 122.542 179.078 122.542C178.946 122.542 178.88 122.41 178.88 122.146C178.88 121.882 178.946 121.75 179.078 121.75C180.178 121.75 181.41 121.794 182.774 121.882C184.138 121.926 185.568 121.948 187.064 121.948C188.824 121.948 190.386 121.926 191.75 121.882C193.158 121.794 194.412 121.75 195.512 121.75C195.6 121.75 195.644 121.882 195.644 122.146C195.644 122.41 195.6 122.542 195.512 122.542C193.884 122.542 192.652 122.674 191.816 122.938C191.024 123.202 190.474 123.664 190.166 124.324C189.902 124.984 189.77 125.952 189.77 127.228V157.654C189.77 158.93 189.902 159.898 190.166 160.558C190.43 161.218 190.98 161.658 191.816 161.878C192.652 162.098 193.884 162.208 195.512 162.208C195.6 162.208 195.644 162.34 195.644 162.604C195.644 162.868 195.6 163 195.512 163C194.368 163 193.114 162.978 191.75 162.934C190.386 162.89 188.824 162.868 187.064 162.868C185.568 162.868 184.116 162.89 182.708 162.934C181.3 162.978 180.046 163 178.946 163C178.858 163 178.814 162.868 178.814 162.604C178.814 162.34 178.858 162.208 178.946 162.208C180.53 162.208 181.718 162.098 182.51 161.878C183.346 161.658 183.896 161.218 184.16 160.558C184.424 159.898 184.556 158.93 184.556 157.654ZM263.013 163C262.309 163 261.143 162.12 259.515 160.36C257.931 158.6 256.017 156.092 253.773 152.836C251.529 149.58 248.999 145.708 246.183 141.22L250.605 139.768C254.301 145.312 257.425 149.734 259.977 153.034C262.573 156.29 264.861 158.644 266.841 160.096C268.821 161.504 270.713 162.208 272.517 162.208C272.649 162.208 272.715 162.34 272.715 162.604C272.715 162.868 272.649 163 272.517 163C270.053 163 268.029 163 266.445 163C264.905 163 263.761 163 263.013 163ZM245.985 121.552C249.769 121.552 252.651 122.3 254.631 123.796C256.655 125.248 257.667 127.272 257.667 129.868C257.667 131.496 257.271 133.058 256.479 134.554C255.731 136.05 254.697 137.37 253.377 138.514C252.101 139.658 250.605 140.56 248.889 141.22C247.217 141.88 245.479 142.21 243.675 142.21C243.147 142.21 242.597 142.21 242.025 142.21C241.453 142.166 240.925 142.122 240.441 142.078V157.654C240.441 158.93 240.551 159.898 240.771 160.558C241.035 161.218 241.541 161.658 242.289 161.878C243.081 162.098 244.247 162.208 245.787 162.208C245.919 162.208 245.985 162.34 245.985 162.604C245.985 162.868 245.919 163 245.787 163C244.687 163 243.477 162.978 242.157 162.934C240.837 162.89 239.385 162.868 237.801 162.868C236.305 162.868 234.875 162.89 233.511 162.934C232.147 162.978 230.915 163 229.815 163C229.683 163 229.617 162.868 229.617 162.604C229.617 162.34 229.683 162.208 229.815 162.208C231.311 162.208 232.433 162.098 233.181 161.878C233.973 161.658 234.501 161.218 234.765 160.558C235.073 159.898 235.227 158.93 235.227 157.654V127.096C235.227 125.82 235.095 124.874 234.831 124.258C234.567 123.598 234.061 123.158 233.313 122.938C232.565 122.674 231.421 122.542 229.881 122.542C229.793 122.542 229.749 122.41 229.749 122.146C229.749 121.882 229.793 121.75 229.881 121.75C230.981 121.75 232.191 121.794 233.511 121.882C234.875 121.926 236.305 121.948 237.801 121.948C238.989 121.948 240.353 121.882 241.893 121.75C243.433 121.618 244.797 121.552 245.985 121.552ZM252.189 132.244C252.189 129.736 251.859 127.8 251.199 126.436C250.539 125.028 249.637 124.06 248.493 123.532C247.393 122.96 246.139 122.674 244.731 122.674C243.675 122.674 242.839 122.784 242.223 123.004C241.607 123.18 241.145 123.598 240.837 124.258C240.573 124.918 240.441 125.908 240.441 127.228V140.362C241.057 140.406 241.717 140.472 242.421 140.56C243.169 140.604 243.807 140.626 244.335 140.626C247.151 140.626 249.153 140.01 250.341 138.778C251.573 137.502 252.189 135.324 252.189 132.244ZM286.09 141.814L287.08 140.296H300.676L301.138 141.814H286.09ZM318.364 162.208C318.584 162.208 318.694 162.34 318.694 162.604C318.694 162.868 318.584 163 318.364 163C317.088 163 315.768 162.956 314.404 162.868C313.084 162.78 311.786 162.736 310.51 162.736C309.102 162.736 307.87 162.78 306.814 162.868C305.802 162.956 304.658 163 303.382 163C303.206 163 303.118 162.868 303.118 162.604C303.118 162.34 303.206 162.208 303.382 162.208C305.538 162.208 306.858 161.878 307.342 161.218C307.826 160.514 307.584 159.15 306.616 157.126L292.426 127.624L294.538 124.456L281.668 154.288C280.524 156.972 280.458 158.974 281.47 160.294C282.482 161.57 284.374 162.208 287.146 162.208C287.366 162.208 287.476 162.34 287.476 162.604C287.476 162.868 287.366 163 287.146 163C285.826 163 284.616 162.956 283.516 162.868C282.416 162.78 281.03 162.736 279.358 162.736C277.73 162.736 276.41 162.78 275.398 162.868C274.43 162.956 273.242 163 271.834 163C271.658 163 271.57 162.868 271.57 162.604C271.57 162.34 271.658 162.208 271.834 162.208C273.022 162.208 274.056 161.988 274.936 161.548C275.816 161.064 276.652 160.206 277.444 158.974C278.28 157.742 279.182 155.982 280.15 153.694L294.208 121.288C294.252 121.156 294.406 121.09 294.67 121.09C294.934 121.046 295.088 121.112 295.132 121.288L310.972 153.958C312.028 156.114 312.93 157.808 313.678 159.04C314.47 160.228 315.24 161.064 315.988 161.548C316.736 161.988 317.528 162.208 318.364 162.208Z" fill="currentColor"/>
</g>
<g filter="url(#filter1_i_707_1448)">
<path d="M551.172 130.34C551.172 128.14 550.666 126.468 549.654 125.324C548.686 124.136 547.234 123.542 545.298 123.542C545.166 123.542 545.1 123.41 545.1 123.146C545.1 122.882 545.166 122.75 545.298 122.75C546.31 122.75 547.366 122.794 548.466 122.882C549.566 122.926 550.754 122.948 552.03 122.948C553.13 122.948 554.208 122.926 555.264 122.882C556.364 122.794 557.376 122.75 558.3 122.75C558.388 122.75 558.432 122.882 558.432 123.146C558.432 123.41 558.388 123.542 558.3 123.542C556.54 123.542 555.198 124.136 554.274 125.324C553.394 126.468 552.954 128.14 552.954 130.34V149.018C552.954 152.318 552.294 155.156 550.974 157.532C549.654 159.908 547.806 161.734 545.43 163.01C543.054 164.242 540.282 164.858 537.114 164.858C533.858 164.858 530.998 164.242 528.534 163.01C526.07 161.734 524.156 159.93 522.792 157.598C521.428 155.266 520.746 152.494 520.746 149.282V128.096C520.746 126.82 520.614 125.874 520.35 125.258C520.086 124.598 519.558 124.158 518.766 123.938C518.018 123.674 516.896 123.542 515.4 123.542C515.268 123.542 515.202 123.41 515.202 123.146C515.202 122.882 515.268 122.75 515.4 122.75C516.5 122.75 517.71 122.794 519.03 122.882C520.35 122.926 521.78 122.948 523.32 122.948C524.904 122.948 526.356 122.926 527.676 122.882C529.04 122.794 530.228 122.75 531.24 122.75C531.372 122.75 531.438 122.882 531.438 123.146C531.438 123.41 531.372 123.542 531.24 123.542C529.744 123.542 528.6 123.674 527.808 123.938C527.06 124.202 526.554 124.664 526.29 125.324C526.07 125.984 525.96 126.952 525.96 128.228V146.972C525.96 152.252 527.104 156.212 529.392 158.852C531.68 161.448 534.848 162.746 538.896 162.746C542.768 162.746 545.782 161.558 547.938 159.182C550.094 156.762 551.172 153.396 551.172 149.084V130.34ZM572.437 128.162V158.39C572.437 159.534 572.547 160.414 572.767 161.03C573.031 161.602 573.493 161.998 574.153 162.218C574.857 162.394 575.891 162.482 577.255 162.482H582.865C585.725 162.482 588.057 161.646 589.861 159.974C591.665 158.302 592.853 156.08 593.425 153.308C593.425 153.176 593.535 153.132 593.755 153.176C594.019 153.176 594.151 153.242 594.151 153.374C594.019 154.65 593.887 156.19 593.755 157.994C593.623 159.798 593.557 161.47 593.557 163.01C593.557 163.67 593.227 164 592.567 164H561.811C561.723 164 561.679 163.868 561.679 163.604C561.679 163.34 561.723 163.208 561.811 163.208C563.351 163.208 564.495 163.098 565.243 162.878C566.035 162.658 566.563 162.218 566.827 161.558C567.091 160.898 567.223 159.93 567.223 158.654V128.096C567.223 126.82 567.091 125.874 566.827 125.258C566.563 124.598 566.035 124.158 565.243 123.938C564.495 123.674 563.351 123.542 561.811 123.542C561.723 123.542 561.679 123.41 561.679 123.146C561.679 122.882 561.723 122.75 561.811 122.75C562.867 122.75 564.077 122.794 565.441 122.882C566.849 122.926 568.301 122.948 569.797 122.948C571.381 122.948 572.833 122.926 574.153 122.882C575.517 122.794 576.727 122.75 577.783 122.75C577.871 122.75 577.915 122.882 577.915 123.146C577.915 123.41 577.871 123.542 577.783 123.542C576.243 123.542 575.099 123.674 574.351 123.938C573.603 124.158 573.097 124.598 572.833 125.258C572.569 125.918 572.437 126.886 572.437 128.162ZM609.272 142.814L610.262 141.296H623.858L624.32 142.814H609.272ZM641.546 163.208C641.766 163.208 641.876 163.34 641.876 163.604C641.876 163.868 641.766 164 641.546 164C640.27 164 638.95 163.956 637.586 163.868C636.266 163.78 634.968 163.736 633.692 163.736C632.284 163.736 631.052 163.78 629.996 163.868C628.984 163.956 627.84 164 626.564 164C626.388 164 626.3 163.868 626.3 163.604C626.3 163.34 626.388 163.208 626.564 163.208C628.72 163.208 630.04 162.878 630.524 162.218C631.008 161.514 630.766 160.15 629.798 158.126L615.608 128.624L617.72 125.456L604.85 155.288C603.706 157.972 603.64 159.974 604.652 161.294C605.664 162.57 607.556 163.208 610.328 163.208C610.548 163.208 610.658 163.34 610.658 163.604C610.658 163.868 610.548 164 610.328 164C609.008 164 607.798 163.956 606.698 163.868C605.598 163.78 604.212 163.736 602.54 163.736C600.912 163.736 599.592 163.78 598.58 163.868C597.612 163.956 596.424 164 595.016 164C594.84 164 594.752 163.868 594.752 163.604C594.752 163.34 594.84 163.208 595.016 163.208C596.204 163.208 597.238 162.988 598.118 162.548C598.998 162.064 599.834 161.206 600.626 159.974C601.462 158.742 602.364 156.982 603.332 154.694L617.39 122.288C617.434 122.156 617.588 122.09 617.852 122.09C618.116 122.046 618.27 122.112 618.314 122.288L634.154 154.958C635.21 157.114 636.112 158.808 636.86 160.04C637.652 161.228 638.422 162.064 639.17 162.548C639.918 162.988 640.71 163.208 641.546 163.208ZM650.175 124.07C647.447 124.07 645.313 124.84 643.773 126.38C642.233 127.876 641.089 130.296 640.341 133.64C640.297 133.728 640.143 133.772 639.879 133.772C639.659 133.772 639.549 133.706 639.549 133.574C639.637 133.002 639.725 132.188 639.813 131.132C639.945 130.076 640.055 128.932 640.143 127.7C640.231 126.468 640.297 125.28 640.341 124.136C640.429 122.992 640.473 122.046 640.473 121.298C640.473 121.078 640.605 120.968 640.869 120.968C641.133 120.968 641.265 121.078 641.265 121.298C641.265 121.738 641.485 122.068 641.925 122.288C642.365 122.464 642.871 122.596 643.443 122.684C644.015 122.728 644.499 122.75 644.895 122.75C648.679 122.882 653.101 122.948 658.161 122.948C661.241 122.948 663.705 122.926 665.553 122.882C667.401 122.794 669.183 122.75 670.899 122.75C672.395 122.75 673.539 122.662 674.331 122.486C675.167 122.266 675.695 121.804 675.915 121.1C675.959 120.924 676.091 120.836 676.311 120.836C676.575 120.836 676.707 120.924 676.707 121.1C676.619 121.76 676.531 122.684 676.443 123.872C676.399 125.06 676.333 126.292 676.245 127.568C676.201 128.844 676.157 130.032 676.113 131.132C676.069 132.232 676.047 133.046 676.047 133.574C676.047 133.706 675.915 133.772 675.651 133.772C675.431 133.772 675.321 133.706 675.321 133.574C675.013 130.142 674.133 127.7 672.681 126.248C671.229 124.796 669.073 124.07 666.213 124.07C664.673 124.07 663.507 124.18 662.715 124.4C661.967 124.576 661.461 124.95 661.197 125.522C660.977 126.094 660.867 126.996 660.867 128.228V158.654C660.867 159.93 660.999 160.898 661.263 161.558C661.571 162.218 662.143 162.658 662.979 162.878C663.859 163.098 665.201 163.208 667.005 163.208C667.093 163.208 667.137 163.34 667.137 163.604C667.137 163.868 667.093 164 667.005 164C665.817 164 664.475 163.978 662.979 163.934C661.527 163.89 659.921 163.868 658.161 163.868C656.489 163.868 654.905 163.89 653.409 163.934C651.957 163.978 650.615 164 649.383 164C649.251 164 649.185 163.868 649.185 163.604C649.185 163.34 649.251 163.208 649.383 163.208C651.099 163.208 652.397 163.098 653.277 162.878C654.201 162.658 654.817 162.218 655.125 161.558C655.433 160.898 655.587 159.93 655.587 158.654V128.096C655.587 126.908 655.455 126.028 655.191 125.456C654.927 124.84 654.399 124.466 653.607 124.334C652.815 124.158 651.671 124.07 650.175 124.07ZM702.254 164.792C699.086 164.792 696.204 164.242 693.608 163.142C691.056 161.998 688.856 160.436 687.008 158.456C685.204 156.476 683.796 154.21 682.784 151.658C681.816 149.062 681.332 146.312 681.332 143.408C681.332 139.844 682.014 136.72 683.378 134.036C684.786 131.352 686.634 129.13 688.922 127.37C691.21 125.566 693.718 124.224 696.446 123.344C699.174 122.464 701.88 122.024 704.564 122.024C707.82 122.024 710.724 122.618 713.276 123.806C715.872 124.95 718.072 126.512 719.876 128.492C721.68 130.472 723.044 132.716 723.968 135.224C724.936 137.732 725.42 140.306 725.42 142.946C725.42 146.026 724.804 148.886 723.572 151.526C722.34 154.166 720.646 156.476 718.49 158.456C716.378 160.436 713.914 161.998 711.098 163.142C708.326 164.242 705.378 164.792 702.254 164.792ZM704.564 163.34C707.336 163.34 709.844 162.636 712.088 161.228C714.376 159.776 716.158 157.686 717.434 154.958C718.754 152.186 719.414 148.798 719.414 144.794C719.414 140.702 718.688 137.072 717.236 133.904C715.828 130.692 713.804 128.184 711.164 126.38C708.568 124.532 705.466 123.608 701.858 123.608C697.238 123.608 693.652 125.17 691.1 128.294C688.592 131.418 687.338 135.686 687.338 141.098C687.338 144.222 687.734 147.148 688.526 149.876C689.362 152.56 690.55 154.914 692.09 156.938C693.63 158.962 695.456 160.546 697.568 161.69C699.68 162.79 702.012 163.34 704.564 163.34ZM771.17 122.75C771.302 122.75 771.368 122.882 771.368 123.146C771.368 123.41 771.302 123.542 771.17 123.542C769.674 123.542 768.31 124.026 767.078 124.994C765.89 125.918 764.878 127.436 764.042 129.548L750.578 163.934C750.534 164.11 750.292 164.198 749.852 164.198C749.456 164.198 749.214 164.11 749.126 163.934L732.56 128.228C731.812 126.6 731.02 125.412 730.184 124.664C729.392 123.916 728.38 123.542 727.148 123.542C727.016 123.542 726.95 123.41 726.95 123.146C726.95 122.882 727.016 122.75 727.148 122.75C727.72 122.75 728.248 122.772 728.732 122.816C729.216 122.86 729.744 122.904 730.316 122.948C730.888 122.948 731.592 122.948 732.428 122.948C734.1 122.948 735.53 122.948 736.718 122.948C737.906 122.904 738.918 122.86 739.754 122.816C740.59 122.772 741.338 122.75 741.998 122.75C742.13 122.75 742.196 122.882 742.196 123.146C742.196 123.41 742.13 123.542 741.998 123.542C740.238 123.542 739.028 123.938 738.368 124.73C737.708 125.478 737.774 126.71 738.566 128.426L752.096 157.862L749.72 161.69L762.458 129.218C763.162 127.414 763.162 126.028 762.458 125.06C761.798 124.048 760.302 123.542 757.97 123.542C757.838 123.542 757.772 123.41 757.772 123.146C757.772 122.882 757.838 122.75 757.97 122.75C759.114 122.75 760.192 122.794 761.204 122.882C762.26 122.926 763.624 122.948 765.296 122.948C766.572 122.948 767.584 122.926 768.332 122.882C769.124 122.794 770.07 122.75 771.17 122.75ZM779.17 142.814L780.16 141.296H793.756L794.218 142.814H779.17ZM811.444 163.208C811.664 163.208 811.774 163.34 811.774 163.604C811.774 163.868 811.664 164 811.444 164C810.168 164 808.848 163.956 807.484 163.868C806.164 163.78 804.866 163.736 803.59 163.736C802.182 163.736 800.95 163.78 799.894 163.868C798.882 163.956 797.738 164 796.462 164C796.286 164 796.198 163.868 796.198 163.604C796.198 163.34 796.286 163.208 796.462 163.208C798.618 163.208 799.938 162.878 800.422 162.218C800.906 161.514 800.664 160.15 799.696 158.126L785.506 128.624L787.618 125.456L774.748 155.288C773.604 157.972 773.538 159.974 774.55 161.294C775.562 162.57 777.454 163.208 780.226 163.208C780.446 163.208 780.556 163.34 780.556 163.604C780.556 163.868 780.446 164 780.226 164C778.906 164 777.696 163.956 776.596 163.868C775.496 163.78 774.11 163.736 772.438 163.736C770.81 163.736 769.49 163.78 768.478 163.868C767.51 163.956 766.322 164 764.914 164C764.738 164 764.65 163.868 764.65 163.604C764.65 163.34 764.738 163.208 764.914 163.208C766.102 163.208 767.136 162.988 768.016 162.548C768.896 162.064 769.732 161.206 770.524 159.974C771.36 158.742 772.262 156.982 773.23 154.694L787.288 122.288C787.332 122.156 787.486 122.09 787.75 122.09C788.014 122.046 788.168 122.112 788.212 122.288L804.052 154.958C805.108 157.114 806.01 158.808 806.758 160.04C807.55 161.228 808.32 162.064 809.068 162.548C809.816 162.988 810.608 163.208 811.444 163.208Z" fill="currentColor"/>
</g>
<g filter="url(#filter2_i_707_1448)">
<path d="M133.084 33.6191C133.084 36.0345 129.712 40.2272 122.967 46.1973C117.544 51.028 111.893 54.2865 106.014 55.9727C105.558 56.7474 103.803 60.0286 100.75 65.8164C95.3268 76.2982 89.1289 84.3418 82.1562 89.9473C75.2292 95.5072 66.3424 99.5859 55.4961 102.184C63.1523 102.594 69.2591 104.599 73.8164 108.199C78.4193 111.799 80.7207 116.425 80.7207 122.076C80.7207 132.923 74.3633 142.857 61.6484 151.881C49.7083 160.403 38.5202 164.664 28.084 164.664C22.2051 164.664 17.3288 163.274 13.4551 160.494C9.58138 157.76 7.64453 154.342 7.64453 150.24C7.64453 147.916 8.28255 145.956 9.55859 144.361C10.8802 142.766 12.5208 141.969 14.4805 141.969C17.3971 141.969 18.8555 143.45 18.8555 146.412C18.8555 147.916 18.3542 149.215 17.3516 150.309C16.3945 151.448 15.2552 152.018 13.9336 152.018C12.931 152.018 12.0195 151.653 11.1992 150.924C10.3789 150.24 10.0371 149.488 10.1738 148.668L10.3105 147.711V147.438C10.265 147.255 10.1738 147.164 10.0371 147.164C9.26237 147.164 8.875 148.281 8.875 150.514C8.875 154.16 10.6523 157.19 14.207 159.605C17.7617 162.021 22.2051 163.229 27.5371 163.229C37.6999 163.229 47.8171 158.466 57.8887 148.941C68.1426 139.234 73.2695 129.869 73.2695 120.846C73.2695 109.954 66.8438 104.029 53.9922 103.072C48.9792 104.804 44.7181 105.67 41.209 105.67C39.8418 105.67 39.1582 105.351 39.1582 104.713C39.1582 104.029 40.3659 103.414 42.7812 102.867C45.2422 102.32 48.0905 102.047 51.3262 102.047H53.5137C60.2129 99.1302 66.2057 95.3477 71.4922 90.6992C76.7786 86.0508 83.2956 78.873 91.043 69.166C95.5547 63.515 99.1549 59.1628 101.844 56.1094C95.737 55.9727 91.2936 54.446 88.5137 51.5293C85.7793 48.6126 84.2982 43.987 84.0703 37.6523C83.7969 29.8138 79.6953 25.8945 71.7656 25.8945C60.3724 25.8945 48.8197 31.9102 37.1074 43.9414C25.3952 55.9271 19.5391 67.7305 19.5391 79.3516C19.5391 84.5469 21.043 88.7168 24.0508 91.8613C27.1042 95.0059 31.1602 96.5781 36.2188 96.5781C45.1055 96.5781 54.015 91.8385 62.9473 82.3594C71.8796 72.8346 76.3457 63.3555 76.3457 53.9219C76.3457 50.5951 75.4798 47.9518 73.748 45.9922C72.0163 43.987 69.7148 42.9844 66.8438 42.9844C60.9193 42.9844 54.5163 47.1087 47.6348 55.3574C40.7533 63.5605 37.3125 71.194 37.3125 78.2578C37.3125 82.6328 39.4089 85.1165 43.6016 85.709C44.1484 85.709 44.4219 85.8913 44.4219 86.2559C44.4219 86.6204 44.1484 86.8027 43.6016 86.8027C41.0039 86.8027 38.7708 85.6634 36.9023 83.3848C35.0339 81.0605 34.0996 78.3262 34.0996 75.1816C34.0996 67.8444 37.6999 60.4388 44.9004 52.9648C52.1009 45.4909 59.2331 41.7539 66.2969 41.7539C69.806 41.7539 72.5632 42.8477 74.5684 45.0352C76.6191 47.1771 77.6445 50.1849 77.6445 54.0586C77.6445 63.9023 73.0189 73.7005 63.7676 83.4531C54.5618 93.1602 45.265 98.0137 35.877 98.0137C29.998 98.0137 25.2585 96.0312 21.6582 92.0664C18.1035 88.056 16.3262 82.7467 16.3262 76.1387C16.3262 64.4264 22.4329 53.1016 34.6465 42.1641C47.6348 30.4974 60.3268 24.6641 72.7227 24.6641C80.6068 24.6641 86.2122 27.2617 89.5391 32.457C90.6328 34.2344 91.362 35.7839 91.7266 37.1055C91.9544 38.1536 92.4329 41.1842 93.1621 46.1973C94.028 52.304 97.1497 55.2891 102.527 55.1523C116.29 39.293 125.678 31.3633 130.691 31.3633C132.286 31.3633 133.084 32.1152 133.084 33.6191ZM131.512 34.0293C131.512 33.1634 131.056 32.7305 130.145 32.7305C128.048 32.7305 124.79 34.804 120.369 38.9512C115.949 43.0527 111.46 48.1797 106.902 54.332C113.921 52.1445 120.734 47.4733 127.342 40.3184C130.122 37.265 131.512 35.1686 131.512 34.0293Z" fill="currentColor"/>
</g>
<g filter="url(#filter3_i_707_1448)">
<path d="M545 91.9062C545 94.276 544.681 96.8737 544.043 99.6992C543.405 102.525 542.79 103.938 542.197 103.938C541.742 103.938 541.514 103.71 541.514 103.254C541.514 103.117 541.559 102.912 541.65 102.639C542.881 99.4486 543.496 96.0078 543.496 92.3164C543.496 86.5742 541.787 81.9714 538.369 78.5078C534.951 74.9987 530.439 73.2441 524.834 73.2441C517.314 73.2441 509.567 75.7279 501.592 80.6953C507.972 85.4349 511.162 90.972 511.162 97.3066C511.162 107.469 504.258 113.508 490.449 115.422C501.797 119.387 507.471 126.656 507.471 137.229C507.471 145.067 504.121 151.926 497.422 157.805C490.768 163.684 482.975 166.623 474.043 166.623C469.759 166.623 466.341 165.507 463.789 163.273C461.283 161.086 460.029 158.101 460.029 154.318C460.029 148.485 462.695 142.72 468.027 137.023C473.405 131.281 478.805 128.41 484.229 128.41C487.236 128.41 489.697 129.367 491.611 131.281C493.525 133.15 494.482 135.565 494.482 138.527C494.482 140.305 493.936 142.515 492.842 145.158C491.748 147.801 490.859 149.123 490.176 149.123C489.674 149.123 489.424 148.941 489.424 148.576C489.424 148.394 489.515 148.12 489.697 147.756C492.067 144.292 493.252 141.171 493.252 138.391C493.252 135.793 492.409 133.697 490.723 132.102C489.036 130.507 486.826 129.709 484.092 129.709C478.942 129.709 473.906 132.421 468.984 137.844C464.062 143.267 461.602 148.804 461.602 154.455C461.602 157.463 462.627 159.969 464.678 161.975C466.729 163.98 469.281 164.982 472.334 164.982C479.307 164.982 485.687 161.61 491.475 154.865C497.308 148.075 500.225 140.624 500.225 132.512C500.225 124.947 496.579 119.387 489.287 115.832L485.322 116.311C484.229 116.447 483.135 116.516 482.041 116.516C478.577 116.516 476.846 115.946 476.846 114.807C476.846 113.986 478.281 113.576 481.152 113.576C483.203 113.576 485.915 113.986 489.287 114.807C494.027 113.348 497.764 110.796 500.498 107.15C503.278 103.505 504.668 99.3118 504.668 94.5723C504.668 90.015 502.913 85.8906 499.404 82.1992C489.424 89.8555 480.036 102.844 471.24 121.164C465.817 132.421 460.85 140.578 456.338 145.637C451.963 150.513 445.742 154.956 437.676 158.967C428.151 163.615 419.652 165.939 412.178 165.939C406.071 165.939 400.99 164.549 396.934 161.77C392.878 158.944 390.85 155.435 390.85 151.242C390.85 148.918 391.533 146.913 392.9 145.227C394.313 143.54 395.977 142.697 397.891 142.697C400.671 142.697 402.061 144.247 402.061 147.346C402.061 148.895 401.582 150.217 400.625 151.311C399.714 152.404 398.574 152.951 397.207 152.951C394.837 152.951 393.698 151.721 393.789 149.26C393.835 148.257 393.743 147.756 393.516 147.756C392.786 147.756 392.422 148.964 392.422 151.379C392.422 155.161 394.268 158.306 397.959 160.812C401.696 163.319 406.39 164.572 412.041 164.572C422.021 164.572 431.068 160.881 439.18 153.498C442.689 150.308 445.742 146.981 448.34 143.518C450.938 140.008 456.885 131.145 466.182 116.926C470.693 110.135 476.117 103.231 482.451 96.2129C488.786 89.1947 494.095 84.2044 498.379 81.2422C491.178 75.181 480.742 72.1504 467.07 72.1504C447.839 72.1504 431.113 79.1003 416.895 93C405.228 104.393 399.395 115.126 399.395 125.197C399.395 130.301 401.035 134.357 404.316 137.365C407.598 140.373 412.041 141.877 417.646 141.877C426.807 141.877 436.263 137.479 446.016 128.684C455.814 119.888 460.713 111.343 460.713 103.049C460.713 96.4408 457.318 93.1367 450.527 93.1367C443.737 93.1367 436.445 96.9193 428.652 104.484C420.905 112.004 417.031 119.09 417.031 125.744C417.031 127.385 417.578 128.798 418.672 129.982C419.766 131.167 421.042 131.76 422.5 131.76C423.275 131.896 423.662 132.079 423.662 132.307C423.662 132.717 423.229 132.922 422.363 132.922C420.176 132.922 418.33 131.942 416.826 129.982C415.322 127.977 414.57 125.539 414.57 122.668C414.57 115.604 418.467 108.723 426.26 102.023C434.053 95.2786 442.051 91.9062 450.254 91.9062C458.092 91.9062 462.012 95.5293 462.012 102.775C462.012 111.617 457.021 120.549 447.041 129.572C437.061 138.596 427.217 143.107 417.51 143.107C411.175 143.107 406.094 141.216 402.266 137.434C398.483 133.605 396.592 128.501 396.592 122.121C396.592 109.224 403.861 97.4661 418.398 86.8477C432.982 76.1836 449.092 70.8516 466.729 70.8516C479.99 70.8516 491.247 73.8366 500.498 79.8066C508.838 74.6113 516.904 72.0137 524.697 72.0137C530.804 72.0137 535.703 73.8366 539.395 77.4824C543.132 81.1283 545 85.9362 545 91.9062Z" fill="currentColor"/>
</g>
<defs>
<filter id="filter0_i_707_1448" x="89.282" y="121.024" width="229.412" height="46.834" filterUnits="userSpaceOnUse" color-interpolation-filters="sRGB">
<feFlood flood-opacity="0" result="BackgroundImageFix"/>
<feBlend mode="normal" in="SourceGraphic" in2="BackgroundImageFix" result="shape"/>
<feColorMatrix in="SourceAlpha" type="matrix" values="0 0 0 0 0 0 0 0 0 0 0 0 0 0 0 0 0 0 127 0" result="hardAlpha"/>
<feOffset dy="4"/>
<feGaussianBlur stdDeviation="2"/>
<feComposite in2="hardAlpha" operator="arithmetic" k2="-1" k3="1"/>
<feColorMatrix type="matrix" values="0 0 0 0 0 0 0 0 0 0 0 0 0 0 0 0 0 0 0.25 0"/>
<feBlend mode="normal" in2="shape" result="effect1_innerShadow_707_1448"/>
</filter>
<filter id="filter1_i_707_1448" x="515.202" y="120.836" width="296.573" height="48.022" filterUnits="userSpaceOnUse" color-interpolation-filters="sRGB">
<feFlood flood-opacity="0" result="BackgroundImageFix"/>
<feBlend mode="normal" in="SourceGraphic" in2="BackgroundImageFix" result="shape"/>
<feColorMatrix in="SourceAlpha" type="matrix" values="0 0 0 0 0 0 0 0 0 0 0 0 0 0 0 0 0 0 127 0" result="hardAlpha"/>
<feOffset dy="4"/>
<feGaussianBlur stdDeviation="2"/>
<feComposite in2="hardAlpha" operator="arithmetic" k2="-1" k3="1"/>
<feColorMatrix type="matrix" values="0 0 0 0 0 0 0 0 0 0 0 0 0 0 0 0 0 0 0.25 0"/>
<feBlend mode="normal" in2="shape" result="effect1_innerShadow_707_1448"/>
</filter>
<filter id="filter2_i_707_1448" x="7.64453" y="24.6641" width="125.439" height="144" filterUnits="userSpaceOnUse" color-interpolation-filters="sRGB">
<feFlood flood-opacity="0" result="BackgroundImageFix"/>
<feBlend mode="normal" in="SourceGraphic" in2="BackgroundImageFix" result="shape"/>
<feColorMatrix in="SourceAlpha" type="matrix" values="0 0 0 0 0 0 0 0 0 0 0 0 0 0 0 0 0 0 127 0" result="hardAlpha"/>
<feOffset dy="4"/>
<feGaussianBlur stdDeviation="2"/>
<feComposite in2="hardAlpha" operator="arithmetic" k2="-1" k3="1"/>
<feColorMatrix type="matrix" values="0 0 0 0 0 0 0 0 0 0 0 0 0 0 0 0 0 0 0.25 0"/>
<feBlend mode="normal" in2="shape" result="effect1_innerShadow_707_1448"/>
</filter>
<filter id="filter3_i_707_1448" x="390.85" y="70.8516" width="154.15" height="99.7715" filterUnits="userSpaceOnUse" color-interpolation-filters="sRGB">
<feFlood flood-opacity="0" result="BackgroundImageFix"/>
<feBlend mode="normal" in="SourceGraphic" in2="BackgroundImageFix" result="shape"/>
<feColorMatrix in="SourceAlpha" type="matrix" values="0 0 0 0 0 0 0 0 0 0 0 0 0 0 0 0 0 0 127 0" result="hardAlpha"/>
<feOffset dy="4"/>
<feGaussianBlur stdDeviation="2"/>
<feComposite in2="hardAlpha" operator="arithmetic" k2="-1" k3="1"/>
<feColorMatrix type="matrix" values="0 0 0 0 0 0 0 0 0 0 0 0 0 0 0 0 0 0 0.25 0"/>
<feBlend mode="normal" in2="shape" result="effect1_innerShadow_707_1448"/>
</filter>
</defs>
</svg>
